<svg xmlns="http://www.w3.org/2000/svg" xmlns:xlink="http://www.w3.org/1999/xlink" x="0" y="0" width="606.4833374023438" height="327.3333435058594" style="
        width:606.4833374023438px;
        height:327.3333435058594px;
        background: #FFF;
        fill: none;
">
        
        
        <svg xmlns="http://www.w3.org/2000/svg" class="role-diagram-draw-area"><g class="shapes-region" style="stroke: black; fill: none;"><g class="grouped-shape"/><g class="grouped-shape"><g class="composite-shape"><path class="real" d=" M140.76,46.77 L253.18,46.77 L253.18,101.95 L140.76,101.95 Z" style="stroke-width: 1px; stroke: rgb(0, 0, 0); fill: rgb(74, 144, 226); fill-opacity: 0.3;"/></g><g class="arrow-line"><path class="connection real" stroke-dasharray="" d="  M82.83,77.61 L136.62,77.61" style="stroke: rgb(0, 0, 0); stroke-width: 1px; fill: none; fill-opacity: 1;"/><g stroke="none" fill="#000" transform="matrix(-1,1.2246467991473532e-16,-1.2246467991473532e-16,-1,139.61538461538464,77.61188811188812)" style="stroke: none; fill: rgb(0, 0, 0); stroke-width: 1px;"><path d=" M7.14,-3.43 L0,0 L7.14,3.43 Z"/></g></g><g class="arrow-line"><path class="connection real" stroke-dasharray="" d="  M196.4,20.83 L196.4,42.16" style="stroke: rgb(0, 0, 0); stroke-width: 1px; fill: none; fill-opacity: 1;"/><g stroke="none" fill="#000" transform="matrix(-1.8369701987210297e-16,-1,1,-1.8369701987210297e-16,196.3986013986014,45.16433566433568)" style="stroke: none; fill: rgb(0, 0, 0); stroke-width: 1px;"><path d=" M7.14,-3.43 L0,0 L7.14,3.43 Z"/></g></g><g class="arrow-line"><path class="connection real" stroke-dasharray="" d="  M196.4,20.83 L261.29,20.83" style="stroke: rgb(0, 0, 0); stroke-width: 1px; fill: none; fill-opacity: 1;"/></g><g class="arrow-line"><path class="connection real" stroke-dasharray="" d="  M253.18,80.05 L306.97,80.05" style="stroke: rgb(0, 0, 0); stroke-width: 1px; fill: none; fill-opacity: 1;"/><g stroke="none" fill="#000" transform="matrix(-1,1.2246467991473532e-16,-1.2246467991473532e-16,-1,309.965034965035,80.04545454545455)" style="stroke: none; fill: rgb(0, 0, 0); stroke-width: 1px;"><path d=" M7.14,-3.43 L0,0 L7.14,3.43 Z"/></g></g></g><g class="grouped-shape"><g class="composite-shape"><path class="real" d=" M70,310 L70,290.42 L89.58,290.42" style="stroke-width: 1px; stroke: rgb(0, 0, 0); fill: none; fill-opacity: 1;"/></g><g class="arrow-line"><path class="connection real" stroke-dasharray="" d="  M70,310 L59.58,310 L50,310" style="stroke: rgb(0, 0, 0); stroke-width: 1px; fill: none; fill-opacity: 1;"/></g><g class="composite-shape"><path class="real" d=" M89.58,290.42 L89.58,270.83 L109.17,270.83" style="stroke-width: 1px; stroke: rgb(0, 0, 0); fill: none; fill-opacity: 1;"/></g><g class="composite-shape"><path class="real" d=" M109.17,270.83 L109.17,251.25 L128.75,251.25" style="stroke-width: 1px; stroke: rgb(0, 0, 0); fill: none; fill-opacity: 1;"/></g><g class="composite-shape"><path class="real" d=" M167.92,212.08 L167.92,192.5 L187.5,192.5" style="stroke-width: 1px; stroke: rgb(0, 0, 0); fill: none; fill-opacity: 1;"/></g><g class="composite-shape"><path class="real" d=" M187.5,192.5 L187.5,172.92 L207.08,172.92" style="stroke-width: 1px; stroke: rgb(0, 0, 0); fill: none; fill-opacity: 1;"/></g><g class="composite-shape"><path class="real" d=" M207.08,172.92 L207.08,153.33 L226.67,153.33" style="stroke-width: 1px; stroke: rgb(0, 0, 0); fill: none; fill-opacity: 1;"/></g><g class="arrow-line"><path class="connection real" stroke-dasharray="" d="  M30,310 L356,310" style="stroke: rgb(0, 0, 0); stroke-width: 2px; fill: none; fill-opacity: 1;"/><g stroke="none" fill="#000" transform="matrix(-1,1.2246467991473532e-16,-1.2246467991473532e-16,-1,359.99999999999994,310.00000000000006)" style="stroke: none; fill: rgb(0, 0, 0); stroke-width: 2px;"><path d=" M9.29,-4.46 L0,0 L9.29,4.46 Z"/></g></g><g class="arrow-line"><path class="connection real" stroke-dasharray="" d="  M226.67,153.33 L226.58,309.82" style="stroke: rgb(0, 0, 0); stroke-width: 1px; fill: none; fill-opacity: 1;"/></g><g class="composite-shape"><path class="real" d=" M250,310 L250,290.42 L269.58,290.42" style="stroke-width: 1px; stroke: rgb(0, 0, 0); fill: none; fill-opacity: 1;"/></g><g class="composite-shape"><path class="real" d=" M269.58,290.42 L269.58,270.83 L289.17,270.83" style="stroke-width: 1px; stroke: rgb(0, 0, 0); fill: none; fill-opacity: 1;"/></g><g class="arrow-line"><path class="connection real" stroke-dasharray="" d="  M30,310 L30,134" style="stroke: rgb(0, 0, 0); stroke-width: 2px; fill: none; fill-opacity: 1;"/><g stroke="none" fill="#000" transform="matrix(3.061616997868383e-16,1,-1,3.061616997868383e-16,30,130)" style="stroke: none; fill: rgb(0, 0, 0); stroke-width: 2px;"><path d=" M9.29,-4.46 L0,0 L9.29,4.46 Z"/></g></g><g class="arrow-line"><path class="connection real" stroke-dasharray="6 6" d="  M89.58,290.42 L119.58,290.42" style="stroke: rgb(0, 0, 0); stroke-width: 1px; fill: none; fill-opacity: 1;"/></g><g class="arrow-line"><path class="connection real" stroke-dasharray="6 6" d="  M109.17,270.83 L140,270.42" style="stroke: rgb(0, 0, 0); stroke-width: 1px; fill: none; fill-opacity: 1;"/></g><g class="arrow-line"><path class="connection real" stroke-dasharray="6 6" d="  M128,251.42 L158,251.42" style="stroke: rgb(0, 0, 0); stroke-width: 1px; fill: none; fill-opacity: 1;"/></g><g class="arrow-line"><path class="connection real" stroke-dasharray="6 6" d="  M187,192.42 L247,192" style="stroke: rgb(0, 0, 0); stroke-width: 1px; fill: none; fill-opacity: 1;"/></g><g class="arrow-line"><path class="connection real" stroke-dasharray="6 6" d="  M206,172.42 L266,172" style="stroke: rgb(0, 0, 0); stroke-width: 1px; fill: none; fill-opacity: 1;"/></g><g class="arrow-line"><path class="connection real" stroke-dasharray="6 6" d="  M226,153.42 L286,153" style="stroke: rgb(0, 0, 0); stroke-width: 1px; fill: none; fill-opacity: 1;"/></g></g><g/></g><g/><g/><g/></svg>
        <svg xmlns="http://www.w3.org/2000/svg" xmlns:xlink="http://www.w3.org/1999/xlink" width="605.0166625976562" height="325.8666687011719" style="width:605.0166625976562px;height:325.8666687011719px;font-family:Asana-Math, Asana;background:#FFF;"><g><g><g><text x="161" y="64.19999694824219" style="white-space:pre;stroke:none;fill:rgb(0,0,0);fill-opacity:1;font-size:16px;font-family:Arial, Helvetica, sans-serif;font-weight:400;font-style:normal;dominant-baseline:text-before-edge;text-decoration:rgb(0, 0, 0);">DAC R-2R</text></g></g></g><g><g><g><text x="81.73333740234375" y="59.350006103515625" style="white-space:pre;stroke:none;fill:rgb(0,0,0);fill-opacity:1;font-size:16px;font-family:Arial, Helvetica, sans-serif;font-weight:400;font-style:normal;dominant-baseline:text-before-edge;text-decoration:rgb(0, 0, 0);">BIN</text></g></g></g><g><g><g><text x="217.816650390625" y="2.5666656494140625" style="white-space:pre;stroke:none;fill:rgb(0,0,0);fill-opacity:1;font-size:16px;font-family:Arial, Helvetica, sans-serif;font-weight:400;font-style:normal;dominant-baseline:text-before-edge;text-decoration:rgb(0, 0, 0);">Vref</text></g></g></g><g><g><g><text x="283.96661376953125" y="61.78334045410156" style="white-space:pre;stroke:none;fill:rgb(0,0,0);fill-opacity:1;font-size:16px;font-family:Arial, Helvetica, sans-serif;font-weight:400;font-style:normal;dominant-baseline:text-before-edge;text-decoration:rgb(0, 0, 0);">Vout</text></g></g></g><g><g><g><g transform="matrix(1,0,0,1,371.73333740234375,190.0500030517578)"><path transform="matrix(0.017,0,0,-0.017,0,0)" d="M310 96L239 624C237 646 241 661 281 662L323 664L323 692L282 691C245 690 217 689 199 689C181 689 153 690 116 691L75 692L75 664L100 662C144 659 152 651 159 614L247 -8L296 -8L674 611C699 651 707 658 736 662L754 664L754 692L724 691C697 690 674 689 658 689C648 689 621 690 580 691L534 692L534 664L560 662C598 659 617 649 617 630C617 619 613 608 601 588Z" stroke="rgb(0,0,0)" stroke-opacity="1" stroke-width="8" fill="rgb(0,0,0)" fill-opacity="1"></path></g></g><g><g><g><g><g transform="matrix(1,0,0,1,384.5,193.28333129882813)"><path transform="matrix(0.0119,0,0,-0.0119,0,0)" d="M105 664L161 662C185 661 196 653 196 635C196 621 192 589 187 559L112 125C96 34 94 32 54 28L13 25L9 -3L51 -2C98 0 117 0 141 0L238 -3L264 -3L267 25L218 28C191 30 182 38 182 58C182 67 183 76 186 93L287 648C316 654 336 656 363 656C450 656 496 617 496 543C496 448 418 378 314 378L270 378L267 367C401 172 432 124 507 -3C507 -3 592 0 592 0C593 0 607 -1 626 -3L639 -3L639 24C599 29 588 37 559 79L375 354C430 364 459 376 495 402C553 444 584 499 584 560C584 646 520 693 409 691L108 691ZM994 111L970 94C917 56 869 36 833 36C786 36 757 73 757 133C757 158 760 185 765 214C782 218 891 248 916 259C1001 296 1040 342 1040 404C1040 451 1006 482 956 482C888 496 778 423 741 349C711 299 681 180 681 113C681 35 725 -11 797 -11C854 -11 910 17 1002 92ZM779 274C796 343 816 386 845 412C863 428 894 440 918 440C947 440 966 420 966 388C966 344 931 297 879 272C851 258 815 247 770 237ZM1085 148C1080 97 1074 62 1063 16C1101 -2 1135 -11 1170 -11C1219 -11 1265 7 1316 47C1367 87 1388 124 1388 174C1388 228 1356 257 1282 271L1239 279C1179 290 1160 307 1160 348C1160 401 1205 442 1262 442C1303 442 1341 424 1357 397L1357 342L1380 342C1384 377 1388 404 1399 455C1360 474 1332 482 1299 482C1247 482 1186 452 1138 404C1112 377 1101 352 1101 316C1101 260 1132 228 1198 215L1261 203C1305 195 1321 177 1321 138C1321 73 1275 29 1204 29C1169 29 1138 40 1110 64L1110 148ZM1459 152C1459 46 1504 -11 1587 -11C1642 -11 1702 15 1747 57C1809 116 1853 230 1853 331C1853 425 1803 482 1720 482C1616 482 1459 382 1459 152ZM1683 444C1744 444 1777 399 1777 315C1777 219 1746 113 1702 60C1684 39 1658 27 1627 27C1569 27 1535 72 1535 151C1535 264 1574 387 1623 427C1636 438 1659 444 1683 444ZM2136 722L2124 733C2072 707 2036 698 1964 691L1960 670L2008 670C2032 670 2042 663 2042 648C2042 645 2042 640 2039 622C2028 567 1955 182 1940 132C1927 82 1921 52 1921 31C1921 6 1932 -9 1951 -9C1977 -9 2013 12 2111 85L2101 103L2075 86C2046 67 2024 56 2014 56C2007 56 2001 66 2001 76C2001 82 2002 89 2005 104ZM2654 473L2647 482L2579 465L2569 414C2554 336 2529 268 2498 221C2439 130 2361 59 2321 59C2313 59 2308 68 2308 85C2308 99 2310 112 2315 137L2372 408C2375 424 2377 438 2377 451C2377 470 2368 482 2354 482C2334 482 2296 461 2222 408L2194 388L2201 368L2233 389C2261 407 2272 412 2281 412C2290 412 2298 403 2298 392C2298 388 2297 378 2296 374L2233 77C2231 68 2229 44 2229 30C2229 7 2244 -11 2264 -11C2327 -11 2448 101 2532 239L2495 97C2488 73 2484 46 2484 31C2484 6 2495 -9 2514 -9C2540 -9 2576 12 2674 85L2664 103L2638 86C2614 70 2588 59 2577 59C2569 59 2564 66 2564 76C2564 112 2639 416 2654 473ZM2986 -20C3030 -19 3097 0 3109 14L3130 46L3120 61C3083 41 3051 32 3015 32C2904 32 2831 118 2831 250C2831 357 2881 417 2971 417C3015 417 3063 397 3081 372L3088 311L3116 311C3116 357 3121 398 3130 434C3090 458 3055 469 3014 469C2966 469 2910 450 2850 412C2780 368 2743 298 2743 210C2743 82 2827 -9 2952 -19L2914 -108L2921 -114C2940 -109 2949 -107 2962 -107C2986 -107 3002 -123 3002 -146C3002 -174 2983 -189 2948 -189C2930 -189 2916 -187 2883 -178L2869 -209C2912 -222 2926 -225 2953 -225C3029 -225 3077 -193 3077 -141C3077 -98 3044 -71 2992 -71C2982 -71 2975 -72 2965 -75ZM3484 82L3479 -3C3544 0 3544 0 3557 0C3562 0 3587 -1 3631 -3L3631 27L3592 29C3568 30 3564 38 3564 87L3564 270C3564 416 3522 469 3406 469C3363 469 3323 458 3285 435L3232 403L3232 338L3258 331L3271 362C3292 409 3302 416 3348 416C3442 416 3481 379 3484 288L3385 270C3249 245 3192 198 3192 111C3192 33 3239 -12 3318 -12C3336 -12 3353 -9 3360 -4ZM3484 124C3455 83 3392 45 3353 45C3313 45 3278 82 3278 125C3278 162 3298 197 3328 216C3353 231 3408 245 3484 256ZM3345 635C3290 635 3253 600 3239 535L3268 535C3281 566 3297 580 3321 580C3359 580 3406 535 3460 535C3517 535 3565 582 3569 640L3540 640C3525 603 3509 590 3481 590C3444 590 3398 635 3345 635ZM3676 152C3676 46 3721 -11 3804 -11C3859 -11 3919 15 3964 57C4026 116 4070 230 4070 331C4070 425 4020 482 3937 482C3833 482 3676 382 3676 152ZM3900 444C3961 444 3994 399 3994 315C3994 219 3963 113 3919 60C3901 39 3875 27 3844 27C3786 27 3752 72 3752 151C3752 264 3791 387 3840 427C3853 438 3876 444 3900 444Z" stroke="rgb(0,0,0)" stroke-opacity="1" stroke-width="8" fill="rgb(0,0,0)" fill-opacity="1"></path></g></g></g></g></g><g><g transform="matrix(1,0,0,1,439.4166259765625,190.0500030517578)"><path transform="matrix(0.017,0,0,-0.017,0,0)" d="M604 347L604 406L65 406L65 347ZM604 134L604 193L65 193L65 134Z" stroke="rgb(0,0,0)" stroke-opacity="1" stroke-width="8" fill="rgb(0,0,0)" fill-opacity="1"></path></g></g><g><g transform="matrix(1,0,0,1,455.86663818359375,190.0500030517578)"><path transform="matrix(0.017,0,0,-0.017,0,0)" d="" stroke="rgb(0,0,0)" stroke-opacity="1" stroke-width="8" fill="rgb(0,0,0)" fill-opacity="1"></path></g></g><g><g><g><g><g transform="matrix(1,0,0,1,461.79998779296875,175.73333740234375)"><path transform="matrix(0.017,0,0,-0.017,0,0)" d="M146 266C146 526 243 632 301 700L282 726C225 675 60 542 60 266C60 159 85 58 133 -32C168 -99 200 -138 282 -215L301 -194C255 -137 146 -15 146 266Z" stroke="rgb(0,0,0)" stroke-opacity="1" stroke-width="8" fill="rgb(0,0,0)" fill-opacity="1"></path></g></g><g><g transform="matrix(1,0,0,1,467.45001220703125,175.6666717529297)"><path transform="matrix(0.017,0,0,-0.017,0,0)" d="M263 689C108 689 29 566 29 324C29 207 50 106 85 57C120 8 176 -20 238 -20C389 -20 465 110 465 366C465 585 400 689 263 689ZM245 654C342 654 381 556 381 316C381 103 343 15 251 15C154 15 113 116 113 360C113 571 150 654 245 654ZM762 689C607 689 528 566 528 324C528 207 549 106 584 57C619 8 675 -20 737 -20C888 -20 964 110 964 366C964 585 899 689 762 689ZM744 654C841 654 880 556 880 316C880 103 842 15 750 15C653 15 612 116 612 360C612 571 649 654 744 654ZM1261 689C1106 689 1027 566 1027 324C1027 207 1048 106 1083 57C1118 8 1174 -20 1236 -20C1387 -20 1463 110 1463 366C1463 585 1398 689 1261 689ZM1243 654C1340 654 1379 556 1379 316C1379 103 1341 15 1249 15C1152 15 1111 116 1111 360C1111 571 1148 654 1243 654ZM1760 689C1605 689 1526 566 1526 324C1526 207 1547 106 1582 57C1617 8 1673 -20 1735 -20C1886 -20 1962 110 1962 366C1962 585 1897 689 1760 689ZM1742 654C1839 654 1878 556 1878 316C1878 103 1840 15 1748 15C1651 15 1610 116 1610 360C1610 571 1647 654 1742 654ZM2508 689C2353 689 2274 566 2274 324C2274 207 2295 106 2330 57C2365 8 2421 -20 2483 -20C2634 -20 2710 110 2710 366C2710 585 2645 689 2508 689ZM2490 654C2587 654 2626 556 2626 316C2626 103 2588 15 2496 15C2399 15 2358 116 2358 360C2358 571 2395 654 2490 654ZM3007 689C2852 689 2773 566 2773 324C2773 207 2794 106 2829 57C2864 8 2920 -20 2982 -20C3133 -20 3209 110 3209 366C3209 585 3144 689 3007 689ZM2989 654C3086 654 3125 556 3125 316C3125 103 3087 15 2995 15C2898 15 2857 116 2857 360C2857 571 2894 654 2989 654ZM3506 689C3351 689 3272 566 3272 324C3272 207 3293 106 3328 57C3363 8 3419 -20 3481 -20C3632 -20 3708 110 3708 366C3708 585 3643 689 3506 689ZM3488 654C3585 654 3624 556 3624 316C3624 103 3586 15 3494 15C3397 15 3356 116 3356 360C3356 571 3393 654 3488 654ZM4160 -3L4160 27L4108 30C4053 33 4043 44 4043 96L4043 700L3802 598L3809 548L3959 614L3959 96C3959 44 3948 33 3894 30L3838 27L3838 -3C3992 0 3992 0 4003 0C4034 0 4144 -3 4160 -3Z" stroke="rgb(0,0,0)" stroke-opacity="1" stroke-width="8" fill="rgb(0,0,0)" fill-opacity="1"></path></g></g><g><g transform="matrix(1,0,0,1,539.5499877929688,175.73333740234375)"><path transform="matrix(0.017,0,0,-0.017,0,0)" d="M51 726L32 700C87 636 187 526 187 266C187 -10 83 -131 32 -194L51 -215C104 -165 273 -23 273 265C273 542 108 675 51 726Z" stroke="rgb(0,0,0)" stroke-opacity="1" stroke-width="8" fill="rgb(0,0,0)" fill-opacity="1"></path></g></g><g><g><g><g><g transform="matrix(1,0,0,1,545.7166137695312,178.73332824707032)"><path transform="matrix(0.0119,0,0,-0.0119,0,0)" d="M16 23L16 -3C203 -3 203 0 239 0C275 0 275 -3 468 -3L468 82C353 77 307 81 122 77L304 270C401 373 431 428 431 503C431 618 353 689 226 689C154 689 105 669 56 619L39 483L68 483L81 529C97 587 133 612 200 612C286 612 341 558 341 473C341 398 299 324 186 204Z" stroke="rgb(0,0,0)" stroke-opacity="1" stroke-width="8" fill="rgb(0,0,0)" fill-opacity="1"></path></g></g></g></g></g></g></g><g><g><g><g transform="matrix(1,0,0,1,498.68328857421875,205.0500030517578)"><path transform="matrix(0.017,0,0,-0.017,0,0)" d="M16 23L16 -3C203 -3 203 0 239 0C275 0 275 -3 468 -3L468 82C353 77 307 81 122 77L304 270C401 373 431 428 431 503C431 618 353 689 226 689C154 689 105 669 56 619L39 483L68 483L81 529C97 587 133 612 200 612C286 612 341 558 341 473C341 398 299 324 186 204Z" stroke="rgb(0,0,0)" stroke-opacity="1" stroke-width="8" fill="rgb(0,0,0)" fill-opacity="1"></path></g></g><g><g><g><g><g transform="matrix(1,0,0,1,508.16668701171875,198.41666259765626)"><path transform="matrix(0.0119,0,0,-0.0119,0,0)" d="M24 388L31 368L63 389C100 412 103 414 110 414C121 414 128 404 128 389C128 338 87 145 46 2L53 -9C78 -2 101 4 123 8C142 134 163 199 209 268C263 352 338 414 383 414C394 414 400 405 400 390C400 372 397 351 389 319L337 107C328 70 324 47 324 31C324 6 335 -9 354 -9C380 -9 416 12 514 85L504 103L478 86C449 67 427 56 417 56C410 56 404 65 404 76C404 81 405 92 406 96L472 372C479 401 483 429 483 446C483 469 472 482 452 482C410 482 341 444 282 389C244 354 216 320 164 247L202 408C206 426 208 438 208 449C208 470 200 482 185 482C164 482 125 460 52 408Z" stroke="rgb(0,0,0)" stroke-opacity="1" stroke-width="8" fill="rgb(0,0,0)" fill-opacity="1"></path></g></g></g></g></g></g></g><line style="fill:none;stroke-width:0.733333px;stroke:rgb(0, 0, 0);" x1="461.79998779296875" y1="185.6666717529297" x2="552.6666564941406" y2="185.6666717529297"></line></g><g><g transform="matrix(1,0,0,1,554.3666381835938,190.0500030517578)"><path transform="matrix(0.017,0,0,-0.017,0,0)" d="M310 96L239 624C237 646 241 661 281 662L323 664L323 692L282 691C245 690 217 689 199 689C181 689 153 690 116 691L75 692L75 664L100 662C144 659 152 651 159 614L247 -8L296 -8L674 611C699 651 707 658 736 662L754 664L754 692L724 691C697 690 674 689 658 689C648 689 621 690 580 691L534 692L534 664L560 662C598 659 617 649 617 630C617 619 613 608 601 588Z" stroke="rgb(0,0,0)" stroke-opacity="1" stroke-width="8" fill="rgb(0,0,0)" fill-opacity="1"></path></g></g><g><g><g><g><g transform="matrix(1,0,0,1,567.1333618164062,193.28333129882813)"><path transform="matrix(0.0119,0,0,-0.0119,0,0)" d="M368 365C371 403 376 435 384 476C373 481 369 482 364 482C333 482 302 458 266 407C227 351 188 291 172 256L204 408C208 425 210 438 210 450C210 470 202 482 187 482C166 482 128 461 54 408L26 388L33 368L65 389C93 407 104 412 113 412C123 412 130 403 130 390C130 332 87 126 47 -2L57 -9C72 -4 88 -1 111 4L124 6L150 126C168 209 191 262 235 319C269 363 296 384 318 384C333 384 343 379 354 365ZM716 111L692 94C639 56 591 36 555 36C508 36 479 73 479 133C479 158 482 185 487 214C504 218 613 248 638 259C723 296 762 342 762 404C762 451 728 482 678 482C610 496 500 423 463 349C433 299 403 180 403 113C403 35 447 -11 519 -11C576 -11 632 17 724 92ZM501 274C518 343 538 386 567 412C585 428 616 440 640 440C669 440 688 420 688 388C688 344 653 297 601 272C573 258 537 247 492 237ZM1121 437L1105 437L1126 549C1142 635 1170 673 1216 673C1246 673 1273 658 1288 634L1298 638C1303 654 1313 685 1321 705L1326 720C1310 727 1279 733 1256 733C1245 733 1229 730 1221 726C1197 715 1115 654 1092 630C1070 608 1058 578 1047 521L1032 442C991 422 971 414 946 405L941 383L1022 383L1013 327C983 132 946 -54 924 -123C906 -182 876 -213 840 -213C817 -213 806 -206 788 -184L774 -188C770 -211 756 -259 751 -268C760 -273 775 -276 786 -276C827 -276 881 -245 920 -198C991 -114 1011 -18 1095 383L1199 383C1203 402 1210 425 1216 439L1212 446C1183 439 1184 437 1121 437Z" stroke="rgb(0,0,0)" stroke-opacity="1" stroke-width="8" fill="rgb(0,0,0)" fill-opacity="1"></path></g></g></g></g></g></g></g><g><g><g><g transform="matrix(1,0,0,1,371.73333740234375,244.55001831054688)"><path transform="matrix(0.017,0,0,-0.017,0,0)" d="M310 96L239 624C237 646 241 661 281 662L323 664L323 692L282 691C245 690 217 689 199 689C181 689 153 690 116 691L75 692L75 664L100 662C144 659 152 651 159 614L247 -8L296 -8L674 611C699 651 707 658 736 662L754 664L754 692L724 691C697 690 674 689 658 689C648 689 621 690 580 691L534 692L534 664L560 662C598 659 617 649 617 630C617 619 613 608 601 588Z" stroke="rgb(0,0,0)" stroke-opacity="1" stroke-width="8" fill="rgb(0,0,0)" fill-opacity="1"></path></g></g><g><g><g><g><g transform="matrix(1,0,0,1,384.5,247.78333129882813)"><path transform="matrix(0.0119,0,0,-0.0119,0,0)" d="M105 664L161 662C185 661 196 653 196 635C196 621 192 589 187 559L112 125C96 34 94 32 54 28L13 25L9 -3L51 -2C98 0 117 0 141 0L238 -3L264 -3L267 25L218 28C191 30 182 38 182 58C182 67 183 76 186 93L287 648C316 654 336 656 363 656C450 656 496 617 496 543C496 448 418 378 314 378L270 378L267 367C401 172 432 124 507 -3C507 -3 592 0 592 0C593 0 607 -1 626 -3L639 -3L639 24C599 29 588 37 559 79L375 354C430 364 459 376 495 402C553 444 584 499 584 560C584 646 520 693 409 691L108 691ZM994 111L970 94C917 56 869 36 833 36C786 36 757 73 757 133C757 158 760 185 765 214C782 218 891 248 916 259C1001 296 1040 342 1040 404C1040 451 1006 482 956 482C888 496 778 423 741 349C711 299 681 180 681 113C681 35 725 -11 797 -11C854 -11 910 17 1002 92ZM779 274C796 343 816 386 845 412C863 428 894 440 918 440C947 440 966 420 966 388C966 344 931 297 879 272C851 258 815 247 770 237ZM1085 148C1080 97 1074 62 1063 16C1101 -2 1135 -11 1170 -11C1219 -11 1265 7 1316 47C1367 87 1388 124 1388 174C1388 228 1356 257 1282 271L1239 279C1179 290 1160 307 1160 348C1160 401 1205 442 1262 442C1303 442 1341 424 1357 397L1357 342L1380 342C1384 377 1388 404 1399 455C1360 474 1332 482 1299 482C1247 482 1186 452 1138 404C1112 377 1101 352 1101 316C1101 260 1132 228 1198 215L1261 203C1305 195 1321 177 1321 138C1321 73 1275 29 1204 29C1169 29 1138 40 1110 64L1110 148ZM1459 152C1459 46 1504 -11 1587 -11C1642 -11 1702 15 1747 57C1809 116 1853 230 1853 331C1853 425 1803 482 1720 482C1616 482 1459 382 1459 152ZM1683 444C1744 444 1777 399 1777 315C1777 219 1746 113 1702 60C1684 39 1658 27 1627 27C1569 27 1535 72 1535 151C1535 264 1574 387 1623 427C1636 438 1659 444 1683 444ZM2136 722L2124 733C2072 707 2036 698 1964 691L1960 670L2008 670C2032 670 2042 663 2042 648C2042 645 2042 640 2039 622C2028 567 1955 182 1940 132C1927 82 1921 52 1921 31C1921 6 1932 -9 1951 -9C1977 -9 2013 12 2111 85L2101 103L2075 86C2046 67 2024 56 2014 56C2007 56 2001 66 2001 76C2001 82 2002 89 2005 104ZM2654 473L2647 482L2579 465L2569 414C2554 336 2529 268 2498 221C2439 130 2361 59 2321 59C2313 59 2308 68 2308 85C2308 99 2310 112 2315 137L2372 408C2375 424 2377 438 2377 451C2377 470 2368 482 2354 482C2334 482 2296 461 2222 408L2194 388L2201 368L2233 389C2261 407 2272 412 2281 412C2290 412 2298 403 2298 392C2298 388 2297 378 2296 374L2233 77C2231 68 2229 44 2229 30C2229 7 2244 -11 2264 -11C2327 -11 2448 101 2532 239L2495 97C2488 73 2484 46 2484 31C2484 6 2495 -9 2514 -9C2540 -9 2576 12 2674 85L2664 103L2638 86C2614 70 2588 59 2577 59C2569 59 2564 66 2564 76C2564 112 2639 416 2654 473ZM2986 -20C3030 -19 3097 0 3109 14L3130 46L3120 61C3083 41 3051 32 3015 32C2904 32 2831 118 2831 250C2831 357 2881 417 2971 417C3015 417 3063 397 3081 372L3088 311L3116 311C3116 357 3121 398 3130 434C3090 458 3055 469 3014 469C2966 469 2910 450 2850 412C2780 368 2743 298 2743 210C2743 82 2827 -9 2952 -19L2914 -108L2921 -114C2940 -109 2949 -107 2962 -107C2986 -107 3002 -123 3002 -146C3002 -174 2983 -189 2948 -189C2930 -189 2916 -187 2883 -178L2869 -209C2912 -222 2926 -225 2953 -225C3029 -225 3077 -193 3077 -141C3077 -98 3044 -71 2992 -71C2982 -71 2975 -72 2965 -75ZM3484 82L3479 -3C3544 0 3544 0 3557 0C3562 0 3587 -1 3631 -3L3631 27L3592 29C3568 30 3564 38 3564 87L3564 270C3564 416 3522 469 3406 469C3363 469 3323 458 3285 435L3232 403L3232 338L3258 331L3271 362C3292 409 3302 416 3348 416C3442 416 3481 379 3484 288L3385 270C3249 245 3192 198 3192 111C3192 33 3239 -12 3318 -12C3336 -12 3353 -9 3360 -4ZM3484 124C3455 83 3392 45 3353 45C3313 45 3278 82 3278 125C3278 162 3298 197 3328 216C3353 231 3408 245 3484 256ZM3345 635C3290 635 3253 600 3239 535L3268 535C3281 566 3297 580 3321 580C3359 580 3406 535 3460 535C3517 535 3565 582 3569 640L3540 640C3525 603 3509 590 3481 590C3444 590 3398 635 3345 635ZM3676 152C3676 46 3721 -11 3804 -11C3859 -11 3919 15 3964 57C4026 116 4070 230 4070 331C4070 425 4020 482 3937 482C3833 482 3676 382 3676 152ZM3900 444C3961 444 3994 399 3994 315C3994 219 3963 113 3919 60C3901 39 3875 27 3844 27C3786 27 3752 72 3752 151C3752 264 3791 387 3840 427C3853 438 3876 444 3900 444Z" stroke="rgb(0,0,0)" stroke-opacity="1" stroke-width="8" fill="rgb(0,0,0)" fill-opacity="1"></path></g></g></g></g></g><g><g transform="matrix(1,0,0,1,439.4166259765625,244.55001831054688)"><path transform="matrix(0.017,0,0,-0.017,0,0)" d="M604 347L604 406L65 406L65 347ZM604 134L604 193L65 193L65 134Z" stroke="rgb(0,0,0)" stroke-opacity="1" stroke-width="8" fill="rgb(0,0,0)" fill-opacity="1"></path></g></g><g><g transform="matrix(1,0,0,1,455.86663818359375,244.55001831054688)"><path transform="matrix(0.017,0,0,-0.017,0,0)" d="" stroke="rgb(0,0,0)" stroke-opacity="1" stroke-width="8" fill="rgb(0,0,0)" fill-opacity="1"></path></g></g><g><g><g><g><g transform="matrix(1,0,0,1,461.79998779296875,230.23333740234375)"><path transform="matrix(0.017,0,0,-0.017,0,0)" d="M146 266C146 526 243 632 301 700L282 726C225 675 60 542 60 266C60 159 85 58 133 -32C168 -99 200 -138 282 -215L301 -194C255 -137 146 -15 146 266Z" stroke="rgb(0,0,0)" stroke-opacity="1" stroke-width="8" fill="rgb(0,0,0)" fill-opacity="1"></path></g></g><g><g transform="matrix(1,0,0,1,467.45001220703125,230.1666717529297)"><path transform="matrix(0.017,0,0,-0.017,0,0)" d="M263 689C108 689 29 566 29 324C29 207 50 106 85 57C120 8 176 -20 238 -20C389 -20 465 110 465 366C465 585 400 689 263 689ZM245 654C342 654 381 556 381 316C381 103 343 15 251 15C154 15 113 116 113 360C113 571 150 654 245 654ZM762 689C607 689 528 566 528 324C528 207 549 106 584 57C619 8 675 -20 737 -20C888 -20 964 110 964 366C964 585 899 689 762 689ZM744 654C841 654 880 556 880 316C880 103 842 15 750 15C653 15 612 116 612 360C612 571 649 654 744 654ZM1261 689C1106 689 1027 566 1027 324C1027 207 1048 106 1083 57C1118 8 1174 -20 1236 -20C1387 -20 1463 110 1463 366C1463 585 1398 689 1261 689ZM1243 654C1340 654 1379 556 1379 316C1379 103 1341 15 1249 15C1152 15 1111 116 1111 360C1111 571 1148 654 1243 654ZM1760 689C1605 689 1526 566 1526 324C1526 207 1547 106 1582 57C1617 8 1673 -20 1735 -20C1886 -20 1962 110 1962 366C1962 585 1897 689 1760 689ZM1742 654C1839 654 1878 556 1878 316C1878 103 1840 15 1748 15C1651 15 1610 116 1610 360C1610 571 1647 654 1742 654ZM2508 689C2353 689 2274 566 2274 324C2274 207 2295 106 2330 57C2365 8 2421 -20 2483 -20C2634 -20 2710 110 2710 366C2710 585 2645 689 2508 689ZM2490 654C2587 654 2626 556 2626 316C2626 103 2588 15 2496 15C2399 15 2358 116 2358 360C2358 571 2395 654 2490 654ZM3007 689C2852 689 2773 566 2773 324C2773 207 2794 106 2829 57C2864 8 2920 -20 2982 -20C3133 -20 3209 110 3209 366C3209 585 3144 689 3007 689ZM2989 654C3086 654 3125 556 3125 316C3125 103 3087 15 2995 15C2898 15 2857 116 2857 360C2857 571 2894 654 2989 654ZM3506 689C3351 689 3272 566 3272 324C3272 207 3293 106 3328 57C3363 8 3419 -20 3481 -20C3632 -20 3708 110 3708 366C3708 585 3643 689 3506 689ZM3488 654C3585 654 3624 556 3624 316C3624 103 3586 15 3494 15C3397 15 3356 116 3356 360C3356 571 3393 654 3488 654ZM4160 -3L4160 27L4108 30C4053 33 4043 44 4043 96L4043 700L3802 598L3809 548L3959 614L3959 96C3959 44 3948 33 3894 30L3838 27L3838 -3C3992 0 3992 0 4003 0C4034 0 4144 -3 4160 -3Z" stroke="rgb(0,0,0)" stroke-opacity="1" stroke-width="8" fill="rgb(0,0,0)" fill-opacity="1"></path></g></g><g><g transform="matrix(1,0,0,1,539.5499877929688,230.23333740234375)"><path transform="matrix(0.017,0,0,-0.017,0,0)" d="M51 726L32 700C87 636 187 526 187 266C187 -10 83 -131 32 -194L51 -215C104 -165 273 -23 273 265C273 542 108 675 51 726Z" stroke="rgb(0,0,0)" stroke-opacity="1" stroke-width="8" fill="rgb(0,0,0)" fill-opacity="1"></path></g></g><g><g><g><g><g transform="matrix(1,0,0,1,545.7166137695312,233.23332824707032)"><path transform="matrix(0.0119,0,0,-0.0119,0,0)" d="M16 23L16 -3C203 -3 203 0 239 0C275 0 275 -3 468 -3L468 82C353 77 307 81 122 77L304 270C401 373 431 428 431 503C431 618 353 689 226 689C154 689 105 669 56 619L39 483L68 483L81 529C97 587 133 612 200 612C286 612 341 558 341 473C341 398 299 324 186 204Z" stroke="rgb(0,0,0)" stroke-opacity="1" stroke-width="8" fill="rgb(0,0,0)" fill-opacity="1"></path></g></g></g></g></g></g></g><g><g><g><g transform="matrix(1,0,0,1,499.01666259765625,259.5500183105469)"><path transform="matrix(0.017,0,0,-0.017,0,0)" d="M16 23L16 -3C203 -3 203 0 239 0C275 0 275 -3 468 -3L468 82C353 77 307 81 122 77L304 270C401 373 431 428 431 503C431 618 353 689 226 689C154 689 105 669 56 619L39 483L68 483L81 529C97 587 133 612 200 612C286 612 341 558 341 473C341 398 299 324 186 204Z" stroke="rgb(0,0,0)" stroke-opacity="1" stroke-width="8" fill="rgb(0,0,0)" fill-opacity="1"></path></g></g><g><g><g><g><g transform="matrix(1,0,0,1,508.49993896484375,252.91666259765626)"><path transform="matrix(0.0119,0,0,-0.0119,0,0)" d="M168 345C127 326 110 315 88 294C50 256 30 211 30 159C30 56 113 -20 226 -20C356 -20 464 82 464 206C464 286 427 329 313 381C404 443 436 485 436 545C436 631 365 689 259 689C140 689 53 613 53 508C53 440 80 402 168 345ZM284 295C347 267 385 218 385 164C385 80 322 14 241 14C156 14 101 74 101 167C101 240 130 286 204 331ZM223 423C160 454 128 494 128 544C128 610 176 655 247 655C320 655 368 607 368 534C368 477 343 438 278 396Z" stroke="rgb(0,0,0)" stroke-opacity="1" stroke-width="8" fill="rgb(0,0,0)" fill-opacity="1"></path></g></g></g></g></g></g></g><line style="fill:none;stroke-width:0.733333px;stroke:rgb(0, 0, 0);" x1="461.79998779296875" y1="240.16665649414062" x2="552.6666564941406" y2="240.16665649414062"></line></g><g><g transform="matrix(1,0,0,1,554.3666381835938,244.55001831054688)"><path transform="matrix(0.017,0,0,-0.017,0,0)" d="M462 224C462 345 355 366 308 374C388 436 418 482 418 541C418 630 344 689 233 689C165 689 120 670 72 622L43 498L74 498L92 554C103 588 166 622 218 622C283 622 336 569 336 506C336 431 277 368 206 368C198 368 187 369 174 370L159 371L147 318L154 312C192 329 211 334 238 334C321 334 369 281 369 190C369 88 308 21 215 21C169 21 128 36 98 64C74 86 61 109 42 163L15 153C36 92 44 56 50 6C103 -12 147 -20 184 -20C307 -20 462 87 462 224Z" stroke="rgb(0,0,0)" stroke-opacity="1" stroke-width="8" fill="rgb(0,0,0)" fill-opacity="1"></path></g></g><g><g transform="matrix(1,0,0,1,562.8499145507812,244.55001831054688)"><path transform="matrix(0.017,0,0,-0.017,0,0)" d="M204 123C177 114 159 108 106 93C99 17 74 -48 16 -144L30 -155L71 -136C152 -31 190 32 218 109Z" stroke="rgb(0,0,0)" stroke-opacity="1" stroke-width="8" fill="rgb(0,0,0)" fill-opacity="1"></path></g></g><g><g transform="matrix(1,0,0,1,570.4833374023438,244.55001831054688)"><path transform="matrix(0.017,0,0,-0.017,0,0)" d="M462 224C462 345 355 366 308 374C388 436 418 482 418 541C418 630 344 689 233 689C165 689 120 670 72 622L43 498L74 498L92 554C103 588 166 622 218 622C283 622 336 569 336 506C336 431 277 368 206 368C198 368 187 369 174 370L159 371L147 318L154 312C192 329 211 334 238 334C321 334 369 281 369 190C369 88 308 21 215 21C169 21 128 36 98 64C74 86 61 109 42 163L15 153C36 92 44 56 50 6C103 -12 147 -20 184 -20C307 -20 462 87 462 224Z" stroke="rgb(0,0,0)" stroke-opacity="1" stroke-width="8" fill="rgb(0,0,0)" fill-opacity="1"></path></g></g></g></g><g><g><g><g transform="matrix(1,0,0,1,371.73333740234375,284.6666564941406)"><path transform="matrix(0.017,0,0,-0.017,0,0)" d="M310 96L239 624C237 646 241 661 281 662L323 664L323 692L282 691C245 690 217 689 199 689C181 689 153 690 116 691L75 692L75 664L100 662C144 659 152 651 159 614L247 -8L296 -8L674 611C699 651 707 658 736 662L754 664L754 692L724 691C697 690 674 689 658 689C648 689 621 690 580 691L534 692L534 664L560 662C598 659 617 649 617 630C617 619 613 608 601 588Z" stroke="rgb(0,0,0)" stroke-opacity="1" stroke-width="8" fill="rgb(0,0,0)" fill-opacity="1"></path></g></g><g><g><g><g><g transform="matrix(1,0,0,1,384.5,287.9)"><path transform="matrix(0.0119,0,0,-0.0119,0,0)" d="M105 664L161 662C185 661 196 653 196 635C196 621 192 589 187 559L112 125C96 34 94 32 54 28L13 25L9 -3L51 -2C98 0 117 0 141 0L238 -3L264 -3L267 25L218 28C191 30 182 38 182 58C182 67 183 76 186 93L287 648C316 654 336 656 363 656C450 656 496 617 496 543C496 448 418 378 314 378L270 378L267 367C401 172 432 124 507 -3C507 -3 592 0 592 0C593 0 607 -1 626 -3L639 -3L639 24C599 29 588 37 559 79L375 354C430 364 459 376 495 402C553 444 584 499 584 560C584 646 520 693 409 691L108 691ZM994 111L970 94C917 56 869 36 833 36C786 36 757 73 757 133C757 158 760 185 765 214C782 218 891 248 916 259C1001 296 1040 342 1040 404C1040 451 1006 482 956 482C888 496 778 423 741 349C711 299 681 180 681 113C681 35 725 -11 797 -11C854 -11 910 17 1002 92ZM779 274C796 343 816 386 845 412C863 428 894 440 918 440C947 440 966 420 966 388C966 344 931 297 879 272C851 258 815 247 770 237ZM1085 148C1080 97 1074 62 1063 16C1101 -2 1135 -11 1170 -11C1219 -11 1265 7 1316 47C1367 87 1388 124 1388 174C1388 228 1356 257 1282 271L1239 279C1179 290 1160 307 1160 348C1160 401 1205 442 1262 442C1303 442 1341 424 1357 397L1357 342L1380 342C1384 377 1388 404 1399 455C1360 474 1332 482 1299 482C1247 482 1186 452 1138 404C1112 377 1101 352 1101 316C1101 260 1132 228 1198 215L1261 203C1305 195 1321 177 1321 138C1321 73 1275 29 1204 29C1169 29 1138 40 1110 64L1110 148ZM1459 152C1459 46 1504 -11 1587 -11C1642 -11 1702 15 1747 57C1809 116 1853 230 1853 331C1853 425 1803 482 1720 482C1616 482 1459 382 1459 152ZM1683 444C1744 444 1777 399 1777 315C1777 219 1746 113 1702 60C1684 39 1658 27 1627 27C1569 27 1535 72 1535 151C1535 264 1574 387 1623 427C1636 438 1659 444 1683 444ZM2136 722L2124 733C2072 707 2036 698 1964 691L1960 670L2008 670C2032 670 2042 663 2042 648C2042 645 2042 640 2039 622C2028 567 1955 182 1940 132C1927 82 1921 52 1921 31C1921 6 1932 -9 1951 -9C1977 -9 2013 12 2111 85L2101 103L2075 86C2046 67 2024 56 2014 56C2007 56 2001 66 2001 76C2001 82 2002 89 2005 104ZM2654 473L2647 482L2579 465L2569 414C2554 336 2529 268 2498 221C2439 130 2361 59 2321 59C2313 59 2308 68 2308 85C2308 99 2310 112 2315 137L2372 408C2375 424 2377 438 2377 451C2377 470 2368 482 2354 482C2334 482 2296 461 2222 408L2194 388L2201 368L2233 389C2261 407 2272 412 2281 412C2290 412 2298 403 2298 392C2298 388 2297 378 2296 374L2233 77C2231 68 2229 44 2229 30C2229 7 2244 -11 2264 -11C2327 -11 2448 101 2532 239L2495 97C2488 73 2484 46 2484 31C2484 6 2495 -9 2514 -9C2540 -9 2576 12 2674 85L2664 103L2638 86C2614 70 2588 59 2577 59C2569 59 2564 66 2564 76C2564 112 2639 416 2654 473ZM2986 -20C3030 -19 3097 0 3109 14L3130 46L3120 61C3083 41 3051 32 3015 32C2904 32 2831 118 2831 250C2831 357 2881 417 2971 417C3015 417 3063 397 3081 372L3088 311L3116 311C3116 357 3121 398 3130 434C3090 458 3055 469 3014 469C2966 469 2910 450 2850 412C2780 368 2743 298 2743 210C2743 82 2827 -9 2952 -19L2914 -108L2921 -114C2940 -109 2949 -107 2962 -107C2986 -107 3002 -123 3002 -146C3002 -174 2983 -189 2948 -189C2930 -189 2916 -187 2883 -178L2869 -209C2912 -222 2926 -225 2953 -225C3029 -225 3077 -193 3077 -141C3077 -98 3044 -71 2992 -71C2982 -71 2975 -72 2965 -75ZM3484 82L3479 -3C3544 0 3544 0 3557 0C3562 0 3587 -1 3631 -3L3631 27L3592 29C3568 30 3564 38 3564 87L3564 270C3564 416 3522 469 3406 469C3363 469 3323 458 3285 435L3232 403L3232 338L3258 331L3271 362C3292 409 3302 416 3348 416C3442 416 3481 379 3484 288L3385 270C3249 245 3192 198 3192 111C3192 33 3239 -12 3318 -12C3336 -12 3353 -9 3360 -4ZM3484 124C3455 83 3392 45 3353 45C3313 45 3278 82 3278 125C3278 162 3298 197 3328 216C3353 231 3408 245 3484 256ZM3345 635C3290 635 3253 600 3239 535L3268 535C3281 566 3297 580 3321 580C3359 580 3406 535 3460 535C3517 535 3565 582 3569 640L3540 640C3525 603 3509 590 3481 590C3444 590 3398 635 3345 635ZM3676 152C3676 46 3721 -11 3804 -11C3859 -11 3919 15 3964 57C4026 116 4070 230 4070 331C4070 425 4020 482 3937 482C3833 482 3676 382 3676 152ZM3900 444C3961 444 3994 399 3994 315C3994 219 3963 113 3919 60C3901 39 3875 27 3844 27C3786 27 3752 72 3752 151C3752 264 3791 387 3840 427C3853 438 3876 444 3900 444Z" stroke="rgb(0,0,0)" stroke-opacity="1" stroke-width="8" fill="rgb(0,0,0)" fill-opacity="1"></path></g></g></g></g></g><g><g transform="matrix(1,0,0,1,439.4166259765625,284.6666564941406)"><path transform="matrix(0.017,0,0,-0.017,0,0)" d="M604 576L583 586C566 526 536 472 467 472C389 472 319 587 227 587C136 587 88 531 65 448L86 439C109 493 145 532 207 532C285 532 347 418 446 418C547 418 589 484 604 576ZM604 294L604 353L65 353L65 294ZM604 134L604 193L65 193L65 134Z" stroke="rgb(0,0,0)" stroke-opacity="1" stroke-width="8" fill="rgb(0,0,0)" fill-opacity="1"></path></g></g><g><g transform="matrix(1,0,0,1,455.86663818359375,284.6666564941406)"><path transform="matrix(0.017,0,0,-0.017,0,0)" d="M667 -3L667 27L615 30C560 33 550 44 550 96L550 700L309 598L316 548L466 614L466 96C466 44 455 33 401 30L345 27L345 -3C499 0 499 0 510 0C541 0 651 -3 667 -3ZM1210 224C1210 345 1103 366 1056 374C1136 436 1166 482 1166 541C1166 630 1092 689 981 689C913 689 868 670 820 622L791 498L822 498L840 554C851 588 914 622 966 622C1031 622 1084 569 1084 506C1084 431 1025 368 954 368C946 368 935 369 922 370L907 371L895 318L902 312C940 329 959 334 986 334C1069 334 1117 281 1117 190C1117 88 1056 21 963 21C917 21 876 36 846 64C822 86 809 109 790 163L763 153C784 92 792 56 798 6C851 -12 895 -20 932 -20C1055 -20 1210 87 1210 224ZM2226 103L2200 86C2171 67 2149 56 2139 56C2132 56 2126 65 2126 76C2126 86 2128 95 2133 116L2208 413C2212 430 2215 446 2215 454C2215 471 2205 482 2189 482C2160 482 2122 464 2061 421C1998 376 1963 341 1914 272L1944 409C1948 429 1951 444 1951 451C1951 470 1941 482 1925 482C1895 482 1849 460 1794 418C1750 384 1730 363 1665 275L1698 408C1702 424 1704 439 1704 451C1704 470 1695 482 1681 482C1660 482 1622 461 1548 408L1520 388L1527 368C1564 391 1599 414 1606 414C1617 414 1624 404 1624 389C1624 338 1583 145 1542 2L1545 -9L1613 6L1635 108C1659 219 1686 278 1741 338C1783 384 1828 414 1856 414C1863 414 1867 406 1867 393C1867 358 1845 244 1804 69L1788 2L1793 -9L1862 6L1883 113C1899 194 1933 269 1977 318C2032 379 2082 414 2114 414C2122 414 2127 405 2127 389C2127 365 2124 351 2102 264C2062 105 2046 84 2046 31C2046 6 2057 -9 2076 -9C2102 -9 2138 12 2236 85ZM2583 96L2512 624C2510 646 2514 661 2554 662L2596 664L2596 692L2555 691C2518 690 2490 689 2472 689C2454 689 2426 690 2389 691L2348 692L2348 664L2373 662C2417 659 2425 651 2432 614L2520 -8L2569 -8L2947 611C2972 651 2980 658 3009 662L3027 664L3027 692L2997 691C2970 690 2947 689 2931 689C2921 689 2894 690 2853 691L2807 692L2807 664L2833 662C2871 659 2890 649 2890 630C2890 619 2886 608 2874 588Z" stroke="rgb(0,0,0)" stroke-opacity="1" stroke-width="8" fill="rgb(0,0,0)" fill-opacity="1"></path></g></g></g></g><g><g><g><g transform="matrix(1,0,0,1,287.73333740234375,151.80000915527344)"><path transform="matrix(0.0119,0,0,-0.0119,0,0)" d="M462 224C462 345 355 366 308 374C388 436 418 482 418 541C418 630 344 689 233 689C165 689 120 670 72 622L43 498L74 498L92 554C103 588 166 622 218 622C283 622 336 569 336 506C336 431 277 368 206 368C198 368 187 369 174 370L159 371L147 318L154 312C192 329 211 334 238 334C321 334 369 281 369 190C369 88 308 21 215 21C169 21 128 36 98 64C74 86 61 109 42 163L15 153C36 92 44 56 50 6C103 -12 147 -20 184 -20C307 -20 462 87 462 224Z" stroke="rgb(0,0,0)" stroke-opacity="1" stroke-width="8" fill="rgb(0,0,0)" fill-opacity="1"></path></g></g><g><g transform="matrix(1,0,0,1,293.6666259765625,151.80000915527344)"><path transform="matrix(0.0119,0,0,-0.0119,0,0)" d="M204 123C177 114 159 108 106 93C99 17 74 -48 16 -144L30 -155L71 -136C152 -31 190 32 218 109Z" stroke="rgb(0,0,0)" stroke-opacity="1" stroke-width="8" fill="rgb(0,0,0)" fill-opacity="1"></path></g></g><g><g transform="matrix(1,0,0,1,299.01666259765625,151.80000915527344)"><path transform="matrix(0.0119,0,0,-0.0119,0,0)" d="M462 224C462 345 355 366 308 374C388 436 418 482 418 541C418 630 344 689 233 689C165 689 120 670 72 622L43 498L74 498L92 554C103 588 166 622 218 622C283 622 336 569 336 506C336 431 277 368 206 368C198 368 187 369 174 370L159 371L147 318L154 312C192 329 211 334 238 334C321 334 369 281 369 190C369 88 308 21 215 21C169 21 128 36 98 64C74 86 61 109 42 163L15 153C36 92 44 56 50 6C103 -12 147 -20 184 -20C307 -20 462 87 462 224ZM1058 96L987 624C985 646 989 661 1029 662L1071 664L1071 692L1030 691C993 690 965 689 947 689C929 689 901 690 864 691L823 692L823 664L848 662C892 659 900 651 907 614L995 -8L1044 -8L1422 611C1447 651 1455 658 1484 662L1502 664L1502 692L1472 691C1445 690 1422 689 1406 689C1396 689 1369 690 1328 691L1282 692L1282 664L1308 662C1346 659 1365 649 1365 630C1365 619 1361 608 1349 588Z" stroke="rgb(0,0,0)" stroke-opacity="1" stroke-width="8" fill="rgb(0,0,0)" fill-opacity="1"></path></g></g></g></g><g><g><g><g transform="matrix(1,0,0,1,267.73333740234375,171.80000915527344)"><path transform="matrix(0.0119,0,0,-0.0119,0,0)" d="M462 224C462 345 355 366 308 374C388 436 418 482 418 541C418 630 344 689 233 689C165 689 120 670 72 622L43 498L74 498L92 554C103 588 166 622 218 622C283 622 336 569 336 506C336 431 277 368 206 368C198 368 187 369 174 370L159 371L147 318L154 312C192 329 211 334 238 334C321 334 369 281 369 190C369 88 308 21 215 21C169 21 128 36 98 64C74 86 61 109 42 163L15 153C36 92 44 56 50 6C103 -12 147 -20 184 -20C307 -20 462 87 462 224Z" stroke="rgb(0,0,0)" stroke-opacity="1" stroke-width="8" fill="rgb(0,0,0)" fill-opacity="1"></path></g></g><g><g transform="matrix(1,0,0,1,273.6666259765625,171.80000915527344)"><path transform="matrix(0.0119,0,0,-0.0119,0,0)" d="M204 123C177 114 159 108 106 93C99 17 74 -48 16 -144L30 -155L71 -136C152 -31 190 32 218 109Z" stroke="rgb(0,0,0)" stroke-opacity="1" stroke-width="8" fill="rgb(0,0,0)" fill-opacity="1"></path></g></g><g><g transform="matrix(1,0,0,1,279.01666259765625,171.80000915527344)"><path transform="matrix(0.0119,0,0,-0.0119,0,0)" d="M16 23L16 -3C203 -3 203 0 239 0C275 0 275 -3 468 -3L468 82C353 77 307 81 122 77L304 270C401 373 431 428 431 503C431 618 353 689 226 689C154 689 105 669 56 619L39 483L68 483L81 529C97 587 133 612 200 612C286 612 341 558 341 473C341 398 299 324 186 204ZM667 345C626 326 609 315 587 294C549 256 529 211 529 159C529 56 612 -20 725 -20C855 -20 963 82 963 206C963 286 926 329 812 381C903 443 935 485 935 545C935 631 864 689 758 689C639 689 552 613 552 508C552 440 579 402 667 345ZM783 295C846 267 884 218 884 164C884 80 821 14 740 14C655 14 600 74 600 167C600 240 629 286 703 331ZM722 423C659 454 627 494 627 544C627 610 675 655 746 655C819 655 867 607 867 534C867 477 842 438 777 396ZM1407 603L1045 -1L1155 -1L1495 659L1495 689L1042 689L1042 477L1072 477L1079 533C1087 595 1094 603 1140 603ZM2056 96L1985 624C1983 646 1987 661 2027 662L2069 664L2069 692L2028 691C1991 690 1963 689 1945 689C1927 689 1899 690 1862 691L1821 692L1821 664L1846 662C1890 659 1898 651 1905 614L1993 -8L2042 -8L2420 611C2445 651 2453 658 2482 662L2500 664L2500 692L2470 691C2443 690 2420 689 2404 689C2394 689 2367 690 2326 691L2280 692L2280 664L2306 662C2344 659 2363 649 2363 630C2363 619 2359 608 2347 588Z" stroke="rgb(0,0,0)" stroke-opacity="1" stroke-width="8" fill="rgb(0,0,0)" fill-opacity="1"></path></g></g></g></g><g><g><g><g transform="matrix(1,0,0,1,247.73333740234375,191.80000915527344)"><path transform="matrix(0.0119,0,0,-0.0119,0,0)" d="M462 224C462 345 355 366 308 374C388 436 418 482 418 541C418 630 344 689 233 689C165 689 120 670 72 622L43 498L74 498L92 554C103 588 166 622 218 622C283 622 336 569 336 506C336 431 277 368 206 368C198 368 187 369 174 370L159 371L147 318L154 312C192 329 211 334 238 334C321 334 369 281 369 190C369 88 308 21 215 21C169 21 128 36 98 64C74 86 61 109 42 163L15 153C36 92 44 56 50 6C103 -12 147 -20 184 -20C307 -20 462 87 462 224Z" stroke="rgb(0,0,0)" stroke-opacity="1" stroke-width="8" fill="rgb(0,0,0)" fill-opacity="1"></path></g></g><g><g transform="matrix(1,0,0,1,253.6666259765625,191.80000915527344)"><path transform="matrix(0.0119,0,0,-0.0119,0,0)" d="M204 123C177 114 159 108 106 93C99 17 74 -48 16 -144L30 -155L71 -136C152 -31 190 32 218 109Z" stroke="rgb(0,0,0)" stroke-opacity="1" stroke-width="8" fill="rgb(0,0,0)" fill-opacity="1"></path></g></g><g><g transform="matrix(1,0,0,1,259.01666259765625,191.80000915527344)"><path transform="matrix(0.0119,0,0,-0.0119,0,0)" d="M16 23L16 -3C203 -3 203 0 239 0C275 0 275 -3 468 -3L468 82C353 77 307 81 122 77L304 270C401 373 431 428 431 503C431 618 353 689 226 689C154 689 105 669 56 619L39 483L68 483L81 529C97 587 133 612 200 612C286 612 341 558 341 473C341 398 299 324 186 204ZM908 603L546 -1L656 -1L996 659L996 689L543 689L543 477L573 477L580 533C588 595 595 603 641 603ZM1278 181L1278 106C1278 46 1267 32 1218 30L1156 27L1156 -3C1289 0 1289 0 1313 0C1337 0 1337 0 1470 -3L1470 27L1422 30C1373 33 1362 46 1362 106L1362 181C1421 181 1442 180 1470 177L1470 248L1362 245L1363 697L1283 667L1000 204L1000 181ZM1278 245L1063 245L1278 597ZM2056 96L1985 624C1983 646 1987 661 2027 662L2069 664L2069 692L2028 691C1991 690 1963 689 1945 689C1927 689 1899 690 1862 691L1821 692L1821 664L1846 662C1890 659 1898 651 1905 614L1993 -8L2042 -8L2420 611C2445 651 2453 658 2482 662L2500 664L2500 692L2470 691C2443 690 2420 689 2404 689C2394 689 2367 690 2326 691L2280 692L2280 664L2306 662C2344 659 2363 649 2363 630C2363 619 2359 608 2347 588Z" stroke="rgb(0,0,0)" stroke-opacity="1" stroke-width="8" fill="rgb(0,0,0)" fill-opacity="1"></path></g></g></g></g><g><g><g><g transform="matrix(1,0,0,1,161.73333740234375,251.79999389648438)"><path transform="matrix(0.0119,0,0,-0.0119,0,0)" d="M462 224C462 345 355 366 308 374C388 436 418 482 418 541C418 630 344 689 233 689C165 689 120 670 72 622L43 498L74 498L92 554C103 588 166 622 218 622C283 622 336 569 336 506C336 431 277 368 206 368C198 368 187 369 174 370L159 371L147 318L154 312C192 329 211 334 238 334C321 334 369 281 369 190C369 88 308 21 215 21C169 21 128 36 98 64C74 86 61 109 42 163L15 153C36 92 44 56 50 6C103 -12 147 -20 184 -20C307 -20 462 87 462 224ZM595 -20C706 16 754 39 808 85C905 168 956 283 956 417C956 586 875 689 743 689C615 689 519 589 519 455C519 340 594 256 698 256C732 256 771 267 789 282L859 340C851 172 742 49 561 5L561 -3ZM739 656C784 656 817 637 839 597C857 565 869 516 869 471C869 379 816 317 739 317C659 317 605 388 605 492C605 593 657 656 739 656ZM1977 103L1951 86C1922 67 1900 56 1890 56C1883 56 1877 65 1877 76C1877 86 1879 95 1884 116L1959 413C1963 430 1966 446 1966 454C1966 471 1956 482 1940 482C1911 482 1873 464 1812 421C1749 376 1714 341 1665 272L1695 409C1699 429 1702 444 1702 451C1702 470 1692 482 1676 482C1646 482 1600 460 1545 418C1501 384 1481 363 1416 275L1449 408C1453 424 1455 439 1455 451C1455 470 1446 482 1432 482C1411 482 1373 461 1299 408L1271 388L1278 368C1315 391 1350 414 1357 414C1368 414 1375 404 1375 389C1375 338 1334 145 1293 2L1296 -9L1364 6L1386 108C1410 219 1437 278 1492 338C1534 384 1579 414 1607 414C1614 414 1618 406 1618 393C1618 358 1596 244 1555 69L1539 2L1544 -9L1613 6L1634 113C1650 194 1684 269 1728 318C1783 379 1833 414 1865 414C1873 414 1878 405 1878 389C1878 365 1875 351 1853 264C1813 105 1797 84 1797 31C1797 6 1808 -9 1827 -9C1853 -9 1889 12 1987 85ZM2334 96L2263 624C2261 646 2265 661 2305 662L2347 664L2347 692L2306 691C2269 690 2241 689 2223 689C2205 689 2177 690 2140 691L2099 692L2099 664L2124 662C2168 659 2176 651 2183 614L2271 -8L2320 -8L2698 611C2723 651 2731 658 2760 662L2778 664L2778 692L2748 691C2721 690 2698 689 2682 689C2672 689 2645 690 2604 691L2558 692L2558 664L2584 662C2622 659 2641 649 2641 630C2641 619 2637 608 2625 588Z" stroke="rgb(0,0,0)" stroke-opacity="1" stroke-width="8" fill="rgb(0,0,0)" fill-opacity="1"></path></g></g></g></g><g><g><g><g transform="matrix(1,0,0,1,142.14996337890625,271.79999389648435)"><path transform="matrix(0.0119,0,0,-0.0119,0,0)" d="M16 23L16 -3C203 -3 203 0 239 0C275 0 275 -3 468 -3L468 82C353 77 307 81 122 77L304 270C401 373 431 428 431 503C431 618 353 689 226 689C154 689 105 669 56 619L39 483L68 483L81 529C97 587 133 612 200 612C286 612 341 558 341 473C341 398 299 324 186 204ZM630 331C651 512 740 611 920 665L878 689C782 657 741 637 690 593C587 506 531 384 531 247C531 82 611 -20 740 -20C870 -20 967 83 967 219C967 334 898 409 792 409C715 409 683 370 630 331ZM754 349C830 349 881 283 881 184C881 80 830 13 753 13C668 13 622 86 622 220C622 255 626 274 637 291C659 325 706 349 754 349ZM1977 103L1951 86C1922 67 1900 56 1890 56C1883 56 1877 65 1877 76C1877 86 1879 95 1884 116L1959 413C1963 430 1966 446 1966 454C1966 471 1956 482 1940 482C1911 482 1873 464 1812 421C1749 376 1714 341 1665 272L1695 409C1699 429 1702 444 1702 451C1702 470 1692 482 1676 482C1646 482 1600 460 1545 418C1501 384 1481 363 1416 275L1449 408C1453 424 1455 439 1455 451C1455 470 1446 482 1432 482C1411 482 1373 461 1299 408L1271 388L1278 368C1315 391 1350 414 1357 414C1368 414 1375 404 1375 389C1375 338 1334 145 1293 2L1296 -9L1364 6L1386 108C1410 219 1437 278 1492 338C1534 384 1579 414 1607 414C1614 414 1618 406 1618 393C1618 358 1596 244 1555 69L1539 2L1544 -9L1613 6L1634 113C1650 194 1684 269 1728 318C1783 379 1833 414 1865 414C1873 414 1878 405 1878 389C1878 365 1875 351 1853 264C1813 105 1797 84 1797 31C1797 6 1808 -9 1827 -9C1853 -9 1889 12 1987 85ZM2334 96L2263 624C2261 646 2265 661 2305 662L2347 664L2347 692L2306 691C2269 690 2241 689 2223 689C2205 689 2177 690 2140 691L2099 692L2099 664L2124 662C2168 659 2176 651 2183 614L2271 -8L2320 -8L2698 611C2723 651 2731 658 2760 662L2778 664L2778 692L2748 691C2721 690 2698 689 2682 689C2672 689 2645 690 2604 691L2558 692L2558 664L2584 662C2622 659 2641 649 2641 630C2641 619 2637 608 2625 588Z" stroke="rgb(0,0,0)" stroke-opacity="1" stroke-width="8" fill="rgb(0,0,0)" fill-opacity="1"></path></g></g></g></g><g><g><g><g transform="matrix(1,0,0,1,121.73333740234375,291.79999389648435)"><path transform="matrix(0.0119,0,0,-0.0119,0,0)" d="M418 -3L418 27L366 30C311 33 301 44 301 96L301 700L60 598L67 548L217 614L217 96C217 44 206 33 152 30L96 27L96 -3C250 0 250 0 261 0C292 0 402 -3 418 -3ZM961 224C961 345 854 366 807 374C887 436 917 482 917 541C917 630 843 689 732 689C664 689 619 670 571 622L542 498L573 498L591 554C602 588 665 622 717 622C782 622 835 569 835 506C835 431 776 368 705 368C697 368 686 369 673 370L658 371L646 318L653 312C691 329 710 334 737 334C820 334 868 281 868 190C868 88 807 21 714 21C668 21 627 36 597 64C573 86 560 109 541 163L514 153C535 92 543 56 549 6C602 -12 646 -20 683 -20C806 -20 961 87 961 224ZM1977 103L1951 86C1922 67 1900 56 1890 56C1883 56 1877 65 1877 76C1877 86 1879 95 1884 116L1959 413C1963 430 1966 446 1966 454C1966 471 1956 482 1940 482C1911 482 1873 464 1812 421C1749 376 1714 341 1665 272L1695 409C1699 429 1702 444 1702 451C1702 470 1692 482 1676 482C1646 482 1600 460 1545 418C1501 384 1481 363 1416 275L1449 408C1453 424 1455 439 1455 451C1455 470 1446 482 1432 482C1411 482 1373 461 1299 408L1271 388L1278 368C1315 391 1350 414 1357 414C1368 414 1375 404 1375 389C1375 338 1334 145 1293 2L1296 -9L1364 6L1386 108C1410 219 1437 278 1492 338C1534 384 1579 414 1607 414C1614 414 1618 406 1618 393C1618 358 1596 244 1555 69L1539 2L1544 -9L1613 6L1634 113C1650 194 1684 269 1728 318C1783 379 1833 414 1865 414C1873 414 1878 405 1878 389C1878 365 1875 351 1853 264C1813 105 1797 84 1797 31C1797 6 1808 -9 1827 -9C1853 -9 1889 12 1987 85ZM2334 96L2263 624C2261 646 2265 661 2305 662L2347 664L2347 692L2306 691C2269 690 2241 689 2223 689C2205 689 2177 690 2140 691L2099 692L2099 664L2124 662C2168 659 2176 651 2183 614L2271 -8L2320 -8L2698 611C2723 651 2731 658 2760 662L2778 664L2778 692L2748 691C2721 690 2698 689 2682 689C2672 689 2645 690 2604 691L2558 692L2558 664L2584 662C2622 659 2641 649 2641 630C2641 619 2637 608 2625 588Z" stroke="rgb(0,0,0)" stroke-opacity="1" stroke-width="8" fill="rgb(0,0,0)" fill-opacity="1"></path></g></g></g></g><g><g><g><g transform="matrix(1,0,0,1,11.73333740234375,126.66667175292969)"><path transform="matrix(0.017,0,0,-0.017,0,0)" d="M125 390L69 107C68 99 56 61 56 31C56 6 67 -9 86 -9C121 -9 156 11 234 74L265 99L255 117L210 86C181 66 161 56 150 56C141 56 136 64 136 76C136 102 150 183 179 328L192 390L299 390L310 440C272 436 238 434 200 434C216 528 227 577 245 631L234 646C214 634 187 622 156 610L131 440C87 419 61 408 43 403L41 390ZM660 111L636 94C583 56 535 36 499 36C452 36 423 73 423 133C423 158 426 185 431 214C448 218 557 248 582 259C667 296 706 342 706 404C706 451 672 482 622 482C554 496 444 423 407 349C377 299 347 180 347 113C347 35 391 -11 463 -11C520 -11 576 17 668 92ZM445 274C462 343 482 386 511 412C529 428 560 440 584 440C613 440 632 420 632 388C632 344 597 297 545 272C517 258 481 247 436 237ZM744 388L751 368L783 389C820 412 823 414 830 414C841 414 848 404 848 389C848 338 807 145 766 2L773 -9C798 -2 821 4 843 8C862 134 883 199 929 268C983 352 1058 414 1103 414C1114 414 1120 405 1120 390C1120 372 1117 351 1109 319L1057 107C1048 70 1044 47 1044 31C1044 6 1055 -9 1074 -9C1100 -9 1136 12 1234 85L1224 103L1198 86C1169 67 1147 56 1137 56C1130 56 1124 65 1124 76C1124 81 1125 92 1126 96L1192 372C1199 401 1203 429 1203 446C1203 469 1192 482 1172 482C1130 482 1061 444 1002 389C964 354 936 320 884 247L922 408C926 426 928 438 928 449C928 470 920 482 905 482C884 482 845 460 772 408ZM1306 148C1301 97 1295 62 1284 16C1322 -2 1356 -11 1391 -11C1440 -11 1486 7 1537 47C1588 87 1609 124 1609 174C1609 228 1577 257 1503 271L1460 279C1400 290 1381 307 1381 348C1381 401 1426 442 1483 442C1524 442 1562 424 1578 397L1578 342L1601 342C1605 377 1609 404 1620 455C1581 474 1553 482 1520 482C1468 482 1407 452 1359 404C1333 377 1322 352 1322 316C1322 260 1353 228 1419 215L1482 203C1526 195 1542 177 1542 138C1542 73 1496 29 1425 29C1390 29 1359 40 1331 64L1331 148ZM1987 82L1982 -3C2047 0 2047 0 2060 0C2065 0 2090 -1 2134 -3L2134 27L2095 29C2071 30 2067 38 2067 87L2067 270C2067 416 2025 469 1909 469C1866 469 1826 458 1788 435L1735 403L1735 338L1761 331L1774 362C1795 409 1805 416 1851 416C1945 416 1984 379 1987 288L1888 270C1752 245 1695 198 1695 111C1695 33 1742 -12 1821 -12C1839 -12 1856 -9 1863 -4ZM1987 124C1958 83 1895 45 1856 45C1816 45 1781 82 1781 125C1781 162 1801 197 1831 216C1856 231 1911 245 1987 256ZM1848 635C1793 635 1756 600 1742 535L1771 535C1784 566 1800 580 1824 580C1862 580 1909 535 1963 535C2020 535 2068 582 2072 640L2043 640C2028 603 2012 590 1984 590C1947 590 1901 635 1848 635ZM2179 152C2179 46 2224 -11 2307 -11C2362 -11 2422 15 2467 57C2529 116 2573 230 2573 331C2573 425 2523 482 2440 482C2336 482 2179 382 2179 152ZM2403 444C2464 444 2497 399 2497 315C2497 219 2466 113 2422 60C2404 39 2378 27 2347 27C2289 27 2255 72 2255 151C2255 264 2294 387 2343 427C2356 438 2379 444 2403 444Z" stroke="rgb(0,0,0)" stroke-opacity="1" stroke-width="8" fill="rgb(0,0,0)" fill-opacity="1"></path></g></g></g></g><g><g><g><g transform="matrix(1,0,0,1,316.73333740234375,296.6666564941406)"><path transform="matrix(0.017,0,0,-0.017,0,0)" d="M125 390L69 107C68 99 56 61 56 31C56 6 67 -9 86 -9C121 -9 156 11 234 74L265 99L255 117L210 86C181 66 161 56 150 56C141 56 136 64 136 76C136 102 150 183 179 328L192 390L299 390L310 440C272 436 238 434 200 434C216 528 227 577 245 631L234 646C214 634 187 622 156 610L131 440C87 419 61 408 43 403L41 390ZM660 111L636 94C583 56 535 36 499 36C452 36 423 73 423 133C423 158 426 185 431 214C448 218 557 248 582 259C667 296 706 342 706 404C706 451 672 482 622 482C554 496 444 423 407 349C377 299 347 180 347 113C347 35 391 -11 463 -11C520 -11 576 17 668 92ZM445 274C462 343 482 386 511 412C529 428 560 440 584 440C613 440 632 420 632 388C632 344 597 297 545 272C517 258 481 247 436 237ZM1450 103L1424 86C1395 67 1373 56 1363 56C1356 56 1350 65 1350 76C1350 86 1352 95 1357 116L1432 413C1436 430 1439 446 1439 454C1439 471 1429 482 1413 482C1384 482 1346 464 1285 421C1222 376 1187 341 1138 272L1168 409C1172 429 1175 444 1175 451C1175 470 1165 482 1149 482C1119 482 1073 460 1018 418C974 384 954 363 889 275L922 408C926 424 928 439 928 451C928 470 919 482 905 482C884 482 846 461 772 408L744 388L751 368C788 391 823 414 830 414C841 414 848 404 848 389C848 338 807 145 766 2L769 -9L837 6L859 108C883 219 910 278 965 338C1007 384 1052 414 1080 414C1087 414 1091 406 1091 393C1091 358 1069 244 1028 69L1012 2L1017 -9L1086 6L1107 113C1123 194 1157 269 1201 318C1256 379 1306 414 1338 414C1346 414 1351 405 1351 389C1351 365 1348 351 1326 264C1286 105 1270 84 1270 31C1270 6 1281 -9 1300 -9C1326 -9 1362 12 1460 85ZM1673 -11C1729 -11 1844 62 1887 125C1928 186 1962 296 1962 371C1962 438 1939 482 1903 482C1861 482 1808 456 1756 409C1715 374 1695 348 1659 289L1683 408C1686 425 1688 440 1688 452C1688 471 1680 482 1666 482C1645 482 1607 461 1533 408L1505 388L1512 368L1544 389C1572 407 1583 412 1592 412C1602 412 1609 403 1609 389C1609 381 1607 361 1605 351L1547 8C1537 -52 1518 -143 1498 -233L1490 -270L1497 -276C1518 -269 1538 -264 1570 -259L1612 3C1633 -4 1655 -11 1673 -11ZM1640 165C1662 293 1769 424 1852 424C1878 424 1890 402 1890 356C1890 275 1850 156 1797 80C1777 51 1745 36 1704 36C1673 36 1648 43 1622 59ZM2013 152C2013 46 2058 -11 2141 -11C2196 -11 2256 15 2301 57C2363 116 2407 230 2407 331C2407 425 2357 482 2274 482C2170 482 2013 382 2013 152ZM2237 444C2298 444 2331 399 2331 315C2331 219 2300 113 2256 60C2238 39 2212 27 2181 27C2123 27 2089 72 2089 151C2089 264 2128 387 2177 427C2190 438 2213 444 2237 444Z" stroke="rgb(0,0,0)" stroke-opacity="1" stroke-width="8" fill="rgb(0,0,0)" fill-opacity="1"></path></g></g></g></g><g transform="matrix(0.7071067811865474,-0.7071067811865477,0.7071067811865477,0.7071067811865474,-84.02055796412043,286.22314087064706)"><g><g><text x="283.46661376953125" y="235.36666870117188" style="white-space:pre;stroke:none;fill:rgb(0,0,0);fill-opacity:1;font-size:16px;font-family:Arial, Helvetica, sans-serif;font-weight:400;font-style:normal;dominant-baseline:text-before-edge;text-decoration:rgb(0, 0, 0);">.........</text></g></g></g><g transform="matrix(0.7071067811865474,-0.7071067811865477,0.7071067811865477,0.7071067811865474,-115.79948164478691,160.73533920792806)"><g><g><text x="116.0999755859375" y="210.98333740234375" style="white-space:pre;stroke:none;fill:rgb(0,0,0);fill-opacity:1;font-size:16px;font-family:Arial, Helvetica, sans-serif;font-weight:400;font-style:normal;dominant-baseline:text-before-edge;text-decoration:rgb(0, 0, 0);">.........</text></g></g></g><g><g><g><g transform="matrix(1,0,0,1,416.73333740234375,79.06666564941406)"><path transform="matrix(0.017,0,0,-0.017,0,0)" d="M310 96L239 624C237 646 241 661 281 662L323 664L323 692L282 691C245 690 217 689 199 689C181 689 153 690 116 691L75 692L75 664L100 662C144 659 152 651 159 614L247 -8L296 -8L674 611C699 651 707 658 736 662L754 664L754 692L724 691C697 690 674 689 658 689C648 689 621 690 580 691L534 692L534 664L560 662C598 659 617 649 617 630C617 619 613 608 601 588Z" stroke="rgb(0,0,0)" stroke-opacity="1" stroke-width="8" fill="rgb(0,0,0)" fill-opacity="1"></path></g></g><g><g><g><g><g transform="matrix(1,0,0,1,429.5,82.30000915527344)"><path transform="matrix(0.0119,0,0,-0.0119,0,0)" d="M17 152C17 46 62 -11 145 -11C200 -11 260 15 305 57C367 116 411 230 411 331C411 425 361 482 278 482C174 482 17 382 17 152ZM241 444C302 444 335 399 335 315C335 219 304 113 260 60C242 39 216 27 185 27C127 27 93 72 93 151C93 264 132 387 181 427C194 438 217 444 241 444ZM935 473L928 482L860 465L850 414C835 336 810 268 779 221C720 130 642 59 602 59C594 59 589 68 589 85C589 99 591 112 596 137L653 408C656 424 658 438 658 451C658 470 649 482 635 482C615 482 577 461 503 408L475 388L482 368L514 389C542 407 553 412 562 412C571 412 579 403 579 392C579 388 578 378 577 374L514 77C512 68 510 44 510 30C510 7 525 -11 545 -11C608 -11 729 101 813 239L776 97C769 73 765 46 765 31C765 6 776 -9 795 -9C821 -9 857 12 955 85L945 103L919 86C895 70 869 59 858 59C850 59 845 66 845 76C845 112 920 416 935 473ZM1123 390L1067 107C1066 99 1054 61 1054 31C1054 6 1065 -9 1084 -9C1119 -9 1154 11 1232 74L1263 99L1253 117L1208 86C1179 66 1159 56 1148 56C1139 56 1134 64 1134 76C1134 102 1148 183 1177 328L1190 390L1297 390L1308 440C1270 436 1236 434 1198 434C1214 528 1225 577 1243 631L1232 646C1212 634 1185 622 1154 610L1129 440C1085 419 1059 408 1041 403L1039 390Z" stroke="rgb(0,0,0)" stroke-opacity="1" stroke-width="8" fill="rgb(0,0,0)" fill-opacity="1"></path></g></g></g></g></g><g><g transform="matrix(1,0,0,1,446.33331298828125,79.06666564941406)"><path transform="matrix(0.017,0,0,-0.017,0,0)" d="" stroke="rgb(0,0,0)" stroke-opacity="1" stroke-width="8" fill="rgb(0,0,0)" fill-opacity="1"></path></g></g><g><g transform="matrix(1,0,0,1,455.6666259765625,79.06666564941406)"><path transform="matrix(0.017,0,0,-0.017,0,0)" d="M604 347L604 406L65 406L65 347ZM604 134L604 193L65 193L65 134Z" stroke="rgb(0,0,0)" stroke-opacity="1" stroke-width="8" fill="rgb(0,0,0)" fill-opacity="1"></path></g></g><g><g transform="matrix(1,0,0,1,472.11663818359375,79.06666564941406)"><path transform="matrix(0.017,0,0,-0.017,0,0)" d="" stroke="rgb(0,0,0)" stroke-opacity="1" stroke-width="8" fill="rgb(0,0,0)" fill-opacity="1"></path></g></g><g><g><g><g><g transform="matrix(1,0,0,1,478.04998779296875,66.66667175292969)"><path transform="matrix(0.017,0,0,-0.017,0,0)" d="M543 227C543 337 459 353 377 365C434 385 459 397 490 425C536 464 559 511 559 562C559 644 501 692 401 692C399 692 389 692 374 691L311 690C299 689 263 689 251 689C232 689 201 690 152 691L100 692L97 664L150 662C174 661 185 653 185 635C185 621 181 589 176 559L89 55C85 37 73 30 31 23L26 -3L63 -2C90 0 105 0 117 0C128 0 154 -1 180 -2L217 -3L237 -4C256 -5 269 -6 277 -6C392 -6 543 87 543 227ZM166 41L217 340L302 340C405 340 455 298 455 211C455 108 382 34 282 34C228 34 207 38 166 41ZM352 655C433 655 473 619 473 544C473 439 399 376 275 376L223 376L272 650C288 650 329 655 352 655ZM713 664L760 662C784 661 795 653 795 636C795 629 789 576 786 559L714 125C699 36 696 31 656 28L620 25L617 -3L649 -3L743 0L837 -3L869 -3L872 25L820 28C794 30 784 37 784 57C784 63 785 74 786 78L875 613C882 652 887 657 926 661L961 664L964 692L858 689C841 689 823 689 780 690L716 692ZM1524 103L1179 692L1017 692L1012 664L1047 662C1092 660 1126 615 1127 606L1034 102C1022 40 1016 32 980 28L949 25L944 -3L1055 0C1067 0 1068 0 1165 -3L1170 25L1128 28C1088 31 1079 39 1079 72C1079 80 1080 91 1082 102L1162 566L1500 -11L1550 -11L1644 542C1665 655 1667 659 1704 662L1741 664L1744 691L1531 692L1526 664L1573 662C1599 661 1609 654 1609 638C1609 631 1526 116 1524 103Z" stroke="rgb(0,0,0)" stroke-opacity="1" stroke-width="8" fill="rgb(0,0,0)" fill-opacity="1"></path></g></g></g></g><g><g><g><g transform="matrix(1,0,0,1,484.11663818359375,94.06666564941406)"><path transform="matrix(0.017,0,0,-0.017,0,0)" d="M16 23L16 -3C203 -3 203 0 239 0C275 0 275 -3 468 -3L468 82C353 77 307 81 122 77L304 270C401 373 431 428 431 503C431 618 353 689 226 689C154 689 105 669 56 619L39 483L68 483L81 529C97 587 133 612 200 612C286 612 341 558 341 473C341 398 299 324 186 204Z" stroke="rgb(0,0,0)" stroke-opacity="1" stroke-width="8" fill="rgb(0,0,0)" fill-opacity="1"></path></g></g><g><g><g><g><g transform="matrix(1,0,0,1,493.5999755859375,87.43334045410157)"><path transform="matrix(0.0119,0,0,-0.0119,0,0)" d="M24 388L31 368L63 389C100 412 103 414 110 414C121 414 128 404 128 389C128 338 87 145 46 2L53 -9C78 -2 101 4 123 8C142 134 163 199 209 268C263 352 338 414 383 414C394 414 400 405 400 390C400 372 397 351 389 319L337 107C328 70 324 47 324 31C324 6 335 -9 354 -9C380 -9 416 12 514 85L504 103L478 86C449 67 427 56 417 56C410 56 404 65 404 76C404 81 405 92 406 96L472 372C479 401 483 429 483 446C483 469 472 482 452 482C410 482 341 444 282 389C244 354 216 320 164 247L202 408C206 426 208 438 208 449C208 470 200 482 185 482C164 482 125 460 52 408Z" stroke="rgb(0,0,0)" stroke-opacity="1" stroke-width="8" fill="rgb(0,0,0)" fill-opacity="1"></path></g></g></g></g></g></g></g><line style="fill:none;stroke-width:0.733333px;stroke:rgb(0, 0, 0);" x1="478.04998779296875" y1="74.68333435058594" x2="507.2833251953125" y2="74.68333435058594"></line></g><g><g transform="matrix(1,0,0,1,508.98333740234375,79.06666564941406)"><path transform="matrix(0.017,0,0,-0.017,0,0)" d="M310 96L239 624C237 646 241 661 281 662L323 664L323 692L282 691C245 690 217 689 199 689C181 689 153 690 116 691L75 692L75 664L100 662C144 659 152 651 159 614L247 -8L296 -8L674 611C699 651 707 658 736 662L754 664L754 692L724 691C697 690 674 689 658 689C648 689 621 690 580 691L534 692L534 664L560 662C598 659 617 649 617 630C617 619 613 608 601 588Z" stroke="rgb(0,0,0)" stroke-opacity="1" stroke-width="8" fill="rgb(0,0,0)" fill-opacity="1"></path></g></g><g><g><g><g><g transform="matrix(1,0,0,1,521.7499389648438,82.30000915527344)"><path transform="matrix(0.0119,0,0,-0.0119,0,0)" d="M368 365C371 403 376 435 384 476C373 481 369 482 364 482C333 482 302 458 266 407C227 351 188 291 172 256L204 408C208 425 210 438 210 450C210 470 202 482 187 482C166 482 128 461 54 408L26 388L33 368L65 389C93 407 104 412 113 412C123 412 130 403 130 390C130 332 87 126 47 -2L57 -9C72 -4 88 -1 111 4L124 6L150 126C168 209 191 262 235 319C269 363 296 384 318 384C333 384 343 379 354 365ZM716 111L692 94C639 56 591 36 555 36C508 36 479 73 479 133C479 158 482 185 487 214C504 218 613 248 638 259C723 296 762 342 762 404C762 451 728 482 678 482C610 496 500 423 463 349C433 299 403 180 403 113C403 35 447 -11 519 -11C576 -11 632 17 724 92ZM501 274C518 343 538 386 567 412C585 428 616 440 640 440C669 440 688 420 688 388C688 344 653 297 601 272C573 258 537 247 492 237ZM1121 437L1105 437L1126 549C1142 635 1170 673 1216 673C1246 673 1273 658 1288 634L1298 638C1303 654 1313 685 1321 705L1326 720C1310 727 1279 733 1256 733C1245 733 1229 730 1221 726C1197 715 1115 654 1092 630C1070 608 1058 578 1047 521L1032 442C991 422 971 414 946 405L941 383L1022 383L1013 327C983 132 946 -54 924 -123C906 -182 876 -213 840 -213C817 -213 806 -206 788 -184L774 -188C770 -211 756 -259 751 -268C760 -273 775 -276 786 -276C827 -276 881 -245 920 -198C991 -114 1011 -18 1095 383L1199 383C1203 402 1210 425 1216 439L1212 446C1183 439 1184 437 1121 437Z" stroke="rgb(0,0,0)" stroke-opacity="1" stroke-width="8" fill="rgb(0,0,0)" fill-opacity="1"></path></g></g></g></g></g></g></g></svg>
</svg>
