<svg xmlns="http://www.w3.org/2000/svg" xmlns:xlink="http://www.w3.org/1999/xlink" x="0" y="0" width="606.4833374023438" height="204.39999389648438" style="
        width:606.4833374023438px;
        height:204.39999389648438px;
        background: #FFF;
        fill: none;
">
        
        
        <svg xmlns="http://www.w3.org/2000/svg" class="role-diagram-draw-area"><g class="shapes-region" style="stroke: black; fill: none;"><g class="grouped-shape"><g class="grouped-shape"/></g><g class="grouped-shape"><g class="composite-shape"><path class="real" d=" M75.42,54.98 L214,54.98 L214,123 L75.42,123 Z" style="stroke-width: 1px; stroke: rgb(0, 0, 0); fill: rgb(74, 144, 226); fill-opacity: 0.3;"/></g><g class="arrow-line"><path class="connection real" stroke-dasharray="" d="  M4,93 L71,93" style="stroke: rgb(0, 0, 0); stroke-width: 1px; fill: none; fill-opacity: 1;"/><g stroke="none" fill="#000" transform="matrix(-1,1.2246467991473532e-16,-1.2246467991473532e-16,-1,73.99999999999999,93.00000000000001)" style="stroke: none; fill: rgb(0, 0, 0); stroke-width: 1px;"><path d=" M7.14,-3.43 L0,0 L7.14,3.43 Z"/></g></g><g class="arrow-line"><path class="connection real" stroke-dasharray="" d="  M144,23 L144,50" style="stroke: rgb(0, 0, 0); stroke-width: 1px; fill: none; fill-opacity: 1;"/><g stroke="none" fill="#000" transform="matrix(-1.8369701987210297e-16,-1,1,-1.8369701987210297e-16,144,53)" style="stroke: none; fill: rgb(0, 0, 0); stroke-width: 1px;"><path d=" M7.14,-3.43 L0,0 L7.14,3.43 Z"/></g></g><g class="arrow-line"><path class="connection real" stroke-dasharray="" d="  M144,23 L224,23" style="stroke: rgb(0, 0, 0); stroke-width: 1px; fill: none; fill-opacity: 1;"/></g><g class="arrow-line"><path class="connection real" stroke-dasharray="" d="  M214,96 L281,96" style="stroke: rgb(0, 0, 0); stroke-width: 1px; fill: none; fill-opacity: 1;"/><g stroke="none" fill="#000" transform="matrix(-1,1.2246467991473532e-16,-1.2246467991473532e-16,-1,284,96)" style="stroke: none; fill: rgb(0, 0, 0); stroke-width: 1px;"><path d=" M7.14,-3.43 L0,0 L7.14,3.43 Z"/></g></g></g><g/></g><g/><g/><g/></svg>
        <svg xmlns="http://www.w3.org/2000/svg" xmlns:xlink="http://www.w3.org/1999/xlink" width="605.0166625976562" height="202.93333435058594" style="width:605.0166625976562px;height:202.93333435058594px;font-family:Asana-Math, Asana;background:#FFF;"><g><g><g><text x="109.14996337890625" y="78.55000305175781" style="white-space:pre;stroke:none;fill:rgb(0,0,0);fill-opacity:1;font-size:16px;font-family:Arial, Helvetica, sans-serif;font-weight:400;font-style:normal;dominant-baseline:text-before-edge;text-decoration:rgb(0, 0, 0);">DAC R-2R</text></g></g></g><g><g><g><text x="5.73333740234375" y="72.56666564941406" style="white-space:pre;stroke:none;fill:rgb(0,0,0);fill-opacity:1;font-size:16px;font-family:Arial, Helvetica, sans-serif;font-weight:400;font-style:normal;dominant-baseline:text-before-edge;text-decoration:rgb(0, 0, 0);">BIN</text></g></g></g><g><g><g><text x="173.73333740234375" y="2.5666656494140625" style="white-space:pre;stroke:none;fill:rgb(0,0,0);fill-opacity:1;font-size:16px;font-family:Arial, Helvetica, sans-serif;font-weight:400;font-style:normal;dominant-baseline:text-before-edge;text-decoration:rgb(0, 0, 0);">Vref</text></g></g></g><g><g><g><text x="255.73333740234375" y="75.56666564941406" style="white-space:pre;stroke:none;fill:rgb(0,0,0);fill-opacity:1;font-size:16px;font-family:Arial, Helvetica, sans-serif;font-weight:400;font-style:normal;dominant-baseline:text-before-edge;text-decoration:rgb(0, 0, 0);">Vout</text></g></g></g><g><g><g><g transform="matrix(1,0,0,1,321.73333740234375,90.05000305175781)"><path transform="matrix(0.017,0,0,-0.017,0,0)" d="M310 96L239 624C237 646 241 661 281 662L323 664L323 692L282 691C245 690 217 689 199 689C181 689 153 690 116 691L75 692L75 664L100 662C144 659 152 651 159 614L247 -8L296 -8L674 611C699 651 707 658 736 662L754 664L754 692L724 691C697 690 674 689 658 689C648 689 621 690 580 691L534 692L534 664L560 662C598 659 617 649 617 630C617 619 613 608 601 588Z" stroke="rgb(0,0,0)" stroke-opacity="1" stroke-width="8" fill="rgb(0,0,0)" fill-opacity="1"></path></g></g><g><g><g><g><g transform="matrix(1,0,0,1,334.5,93.28333129882813)"><path transform="matrix(0.0119,0,0,-0.0119,0,0)" d="M105 664L161 662C185 661 196 653 196 635C196 621 192 589 187 559L112 125C96 34 94 32 54 28L13 25L9 -3L51 -2C98 0 117 0 141 0L238 -3L264 -3L267 25L218 28C191 30 182 38 182 58C182 67 183 76 186 93L287 648C316 654 336 656 363 656C450 656 496 617 496 543C496 448 418 378 314 378L270 378L267 367C401 172 432 124 507 -3C507 -3 592 0 592 0C593 0 607 -1 626 -3L639 -3L639 24C599 29 588 37 559 79L375 354C430 364 459 376 495 402C553 444 584 499 584 560C584 646 520 693 409 691L108 691ZM994 111L970 94C917 56 869 36 833 36C786 36 757 73 757 133C757 158 760 185 765 214C782 218 891 248 916 259C1001 296 1040 342 1040 404C1040 451 1006 482 956 482C888 496 778 423 741 349C711 299 681 180 681 113C681 35 725 -11 797 -11C854 -11 910 17 1002 92ZM779 274C796 343 816 386 845 412C863 428 894 440 918 440C947 440 966 420 966 388C966 344 931 297 879 272C851 258 815 247 770 237ZM1085 148C1080 97 1074 62 1063 16C1101 -2 1135 -11 1170 -11C1219 -11 1265 7 1316 47C1367 87 1388 124 1388 174C1388 228 1356 257 1282 271L1239 279C1179 290 1160 307 1160 348C1160 401 1205 442 1262 442C1303 442 1341 424 1357 397L1357 342L1380 342C1384 377 1388 404 1399 455C1360 474 1332 482 1299 482C1247 482 1186 452 1138 404C1112 377 1101 352 1101 316C1101 260 1132 228 1198 215L1261 203C1305 195 1321 177 1321 138C1321 73 1275 29 1204 29C1169 29 1138 40 1110 64L1110 148ZM1459 152C1459 46 1504 -11 1587 -11C1642 -11 1702 15 1747 57C1809 116 1853 230 1853 331C1853 425 1803 482 1720 482C1616 482 1459 382 1459 152ZM1683 444C1744 444 1777 399 1777 315C1777 219 1746 113 1702 60C1684 39 1658 27 1627 27C1569 27 1535 72 1535 151C1535 264 1574 387 1623 427C1636 438 1659 444 1683 444ZM2136 722L2124 733C2072 707 2036 698 1964 691L1960 670L2008 670C2032 670 2042 663 2042 648C2042 645 2042 640 2039 622C2028 567 1955 182 1940 132C1927 82 1921 52 1921 31C1921 6 1932 -9 1951 -9C1977 -9 2013 12 2111 85L2101 103L2075 86C2046 67 2024 56 2014 56C2007 56 2001 66 2001 76C2001 82 2002 89 2005 104ZM2654 473L2647 482L2579 465L2569 414C2554 336 2529 268 2498 221C2439 130 2361 59 2321 59C2313 59 2308 68 2308 85C2308 99 2310 112 2315 137L2372 408C2375 424 2377 438 2377 451C2377 470 2368 482 2354 482C2334 482 2296 461 2222 408L2194 388L2201 368L2233 389C2261 407 2272 412 2281 412C2290 412 2298 403 2298 392C2298 388 2297 378 2296 374L2233 77C2231 68 2229 44 2229 30C2229 7 2244 -11 2264 -11C2327 -11 2448 101 2532 239L2495 97C2488 73 2484 46 2484 31C2484 6 2495 -9 2514 -9C2540 -9 2576 12 2674 85L2664 103L2638 86C2614 70 2588 59 2577 59C2569 59 2564 66 2564 76C2564 112 2639 416 2654 473ZM2986 -20C3030 -19 3097 0 3109 14L3130 46L3120 61C3083 41 3051 32 3015 32C2904 32 2831 118 2831 250C2831 357 2881 417 2971 417C3015 417 3063 397 3081 372L3088 311L3116 311C3116 357 3121 398 3130 434C3090 458 3055 469 3014 469C2966 469 2910 450 2850 412C2780 368 2743 298 2743 210C2743 82 2827 -9 2952 -19L2914 -108L2921 -114C2940 -109 2949 -107 2962 -107C2986 -107 3002 -123 3002 -146C3002 -174 2983 -189 2948 -189C2930 -189 2916 -187 2883 -178L2869 -209C2912 -222 2926 -225 2953 -225C3029 -225 3077 -193 3077 -141C3077 -98 3044 -71 2992 -71C2982 -71 2975 -72 2965 -75ZM3484 82L3479 -3C3544 0 3544 0 3557 0C3562 0 3587 -1 3631 -3L3631 27L3592 29C3568 30 3564 38 3564 87L3564 270C3564 416 3522 469 3406 469C3363 469 3323 458 3285 435L3232 403L3232 338L3258 331L3271 362C3292 409 3302 416 3348 416C3442 416 3481 379 3484 288L3385 270C3249 245 3192 198 3192 111C3192 33 3239 -12 3318 -12C3336 -12 3353 -9 3360 -4ZM3484 124C3455 83 3392 45 3353 45C3313 45 3278 82 3278 125C3278 162 3298 197 3328 216C3353 231 3408 245 3484 256ZM3345 635C3290 635 3253 600 3239 535L3268 535C3281 566 3297 580 3321 580C3359 580 3406 535 3460 535C3517 535 3565 582 3569 640L3540 640C3525 603 3509 590 3481 590C3444 590 3398 635 3345 635ZM3676 152C3676 46 3721 -11 3804 -11C3859 -11 3919 15 3964 57C4026 116 4070 230 4070 331C4070 425 4020 482 3937 482C3833 482 3676 382 3676 152ZM3900 444C3961 444 3994 399 3994 315C3994 219 3963 113 3919 60C3901 39 3875 27 3844 27C3786 27 3752 72 3752 151C3752 264 3791 387 3840 427C3853 438 3876 444 3900 444Z" stroke="rgb(0,0,0)" stroke-opacity="1" stroke-width="8" fill="rgb(0,0,0)" fill-opacity="1"></path></g></g></g></g></g><g><g transform="matrix(1,0,0,1,389.4166259765625,90.05000305175781)"><path transform="matrix(0.017,0,0,-0.017,0,0)" d="M604 347L604 406L65 406L65 347ZM604 134L604 193L65 193L65 134Z" stroke="rgb(0,0,0)" stroke-opacity="1" stroke-width="8" fill="rgb(0,0,0)" fill-opacity="1"></path></g></g><g><g transform="matrix(1,0,0,1,405.86663818359375,90.05000305175781)"><path transform="matrix(0.017,0,0,-0.017,0,0)" d="" stroke="rgb(0,0,0)" stroke-opacity="1" stroke-width="8" fill="rgb(0,0,0)" fill-opacity="1"></path></g></g><g><g><g><g><g transform="matrix(1,0,0,1,411.79998779296875,75.73332214355469)"><path transform="matrix(0.017,0,0,-0.017,0,0)" d="M146 266C146 526 243 632 301 700L282 726C225 675 60 542 60 266C60 159 85 58 133 -32C168 -99 200 -138 282 -215L301 -194C255 -137 146 -15 146 266Z" stroke="rgb(0,0,0)" stroke-opacity="1" stroke-width="8" fill="rgb(0,0,0)" fill-opacity="1"></path></g></g><g><g transform="matrix(1,0,0,1,417.45001220703125,75.66665649414062)"><path transform="matrix(0.017,0,0,-0.017,0,0)" d="M263 689C108 689 29 566 29 324C29 207 50 106 85 57C120 8 176 -20 238 -20C389 -20 465 110 465 366C465 585 400 689 263 689ZM245 654C342 654 381 556 381 316C381 103 343 15 251 15C154 15 113 116 113 360C113 571 150 654 245 654ZM762 689C607 689 528 566 528 324C528 207 549 106 584 57C619 8 675 -20 737 -20C888 -20 964 110 964 366C964 585 899 689 762 689ZM744 654C841 654 880 556 880 316C880 103 842 15 750 15C653 15 612 116 612 360C612 571 649 654 744 654ZM1261 689C1106 689 1027 566 1027 324C1027 207 1048 106 1083 57C1118 8 1174 -20 1236 -20C1387 -20 1463 110 1463 366C1463 585 1398 689 1261 689ZM1243 654C1340 654 1379 556 1379 316C1379 103 1341 15 1249 15C1152 15 1111 116 1111 360C1111 571 1148 654 1243 654ZM1760 689C1605 689 1526 566 1526 324C1526 207 1547 106 1582 57C1617 8 1673 -20 1735 -20C1886 -20 1962 110 1962 366C1962 585 1897 689 1760 689ZM1742 654C1839 654 1878 556 1878 316C1878 103 1840 15 1748 15C1651 15 1610 116 1610 360C1610 571 1647 654 1742 654ZM2259 689C2104 689 2025 566 2025 324C2025 207 2046 106 2081 57C2116 8 2172 -20 2234 -20C2385 -20 2461 110 2461 366C2461 585 2396 689 2259 689ZM2241 654C2338 654 2377 556 2377 316C2377 103 2339 15 2247 15C2150 15 2109 116 2109 360C2109 571 2146 654 2241 654ZM2758 689C2603 689 2524 566 2524 324C2524 207 2545 106 2580 57C2615 8 2671 -20 2733 -20C2884 -20 2960 110 2960 366C2960 585 2895 689 2758 689ZM2740 654C2837 654 2876 556 2876 316C2876 103 2838 15 2746 15C2649 15 2608 116 2608 360C2608 571 2645 654 2740 654ZM3257 689C3102 689 3023 566 3023 324C3023 207 3044 106 3079 57C3114 8 3170 -20 3232 -20C3383 -20 3459 110 3459 366C3459 585 3394 689 3257 689ZM3239 654C3336 654 3375 556 3375 316C3375 103 3337 15 3245 15C3148 15 3107 116 3107 360C3107 571 3144 654 3239 654ZM3911 -3L3911 27L3859 30C3804 33 3794 44 3794 96L3794 700L3553 598L3560 548L3710 614L3710 96C3710 44 3699 33 3645 30L3589 27L3589 -3C3743 0 3743 0 3754 0C3785 0 3895 -3 3911 -3Z" stroke="rgb(0,0,0)" stroke-opacity="1" stroke-width="8" fill="rgb(0,0,0)" fill-opacity="1"></path></g></g><g><g transform="matrix(1,0,0,1,485.316650390625,75.73332214355469)"><path transform="matrix(0.017,0,0,-0.017,0,0)" d="M51 726L32 700C87 636 187 526 187 266C187 -10 83 -131 32 -194L51 -215C104 -165 273 -23 273 265C273 542 108 675 51 726Z" stroke="rgb(0,0,0)" stroke-opacity="1" stroke-width="8" fill="rgb(0,0,0)" fill-opacity="1"></path></g></g><g><g><g><g><g transform="matrix(1,0,0,1,491.48333740234375,78.73332824707032)"><path transform="matrix(0.0119,0,0,-0.0119,0,0)" d="M16 23L16 -3C203 -3 203 0 239 0C275 0 275 -3 468 -3L468 82C353 77 307 81 122 77L304 270C401 373 431 428 431 503C431 618 353 689 226 689C154 689 105 669 56 619L39 483L68 483L81 529C97 587 133 612 200 612C286 612 341 558 341 473C341 398 299 324 186 204Z" stroke="rgb(0,0,0)" stroke-opacity="1" stroke-width="8" fill="rgb(0,0,0)" fill-opacity="1"></path></g></g></g></g></g></g></g><g><g><g><g transform="matrix(1,0,0,1,446.566650390625,105.05000305175781)"><path transform="matrix(0.017,0,0,-0.017,0,0)" d="M16 23L16 -3C203 -3 203 0 239 0C275 0 275 -3 468 -3L468 82C353 77 307 81 122 77L304 270C401 373 431 428 431 503C431 618 353 689 226 689C154 689 105 669 56 619L39 483L68 483L81 529C97 587 133 612 200 612C286 612 341 558 341 473C341 398 299 324 186 204Z" stroke="rgb(0,0,0)" stroke-opacity="1" stroke-width="8" fill="rgb(0,0,0)" fill-opacity="1"></path></g></g><g><g><g><g><g transform="matrix(1,0,0,1,456.04998779296875,98.41666259765626)"><path transform="matrix(0.0119,0,0,-0.0119,0,0)" d="M24 388L31 368L63 389C100 412 103 414 110 414C121 414 128 404 128 389C128 338 87 145 46 2L53 -9C78 -2 101 4 123 8C142 134 163 199 209 268C263 352 338 414 383 414C394 414 400 405 400 390C400 372 397 351 389 319L337 107C328 70 324 47 324 31C324 6 335 -9 354 -9C380 -9 416 12 514 85L504 103L478 86C449 67 427 56 417 56C410 56 404 65 404 76C404 81 405 92 406 96L472 372C479 401 483 429 483 446C483 469 472 482 452 482C410 482 341 444 282 389C244 354 216 320 164 247L202 408C206 426 208 438 208 449C208 470 200 482 185 482C164 482 125 460 52 408Z" stroke="rgb(0,0,0)" stroke-opacity="1" stroke-width="8" fill="rgb(0,0,0)" fill-opacity="1"></path></g></g></g></g></g></g></g><line style="fill:none;stroke-width:0.733333px;stroke:rgb(0, 0, 0);" x1="411.79998779296875" y1="85.66665649414062" x2="498.43333435058594" y2="85.66665649414062"></line></g><g><g transform="matrix(1,0,0,1,500.13336181640625,90.05000305175781)"><path transform="matrix(0.017,0,0,-0.017,0,0)" d="M310 96L239 624C237 646 241 661 281 662L323 664L323 692L282 691C245 690 217 689 199 689C181 689 153 690 116 691L75 692L75 664L100 662C144 659 152 651 159 614L247 -8L296 -8L674 611C699 651 707 658 736 662L754 664L754 692L724 691C697 690 674 689 658 689C648 689 621 690 580 691L534 692L534 664L560 662C598 659 617 649 617 630C617 619 613 608 601 588Z" stroke="rgb(0,0,0)" stroke-opacity="1" stroke-width="8" fill="rgb(0,0,0)" fill-opacity="1"></path></g></g><g><g><g><g><g transform="matrix(1,0,0,1,512.8999633789062,93.28333129882813)"><path transform="matrix(0.0119,0,0,-0.0119,0,0)" d="M368 365C371 403 376 435 384 476C373 481 369 482 364 482C333 482 302 458 266 407C227 351 188 291 172 256L204 408C208 425 210 438 210 450C210 470 202 482 187 482C166 482 128 461 54 408L26 388L33 368L65 389C93 407 104 412 113 412C123 412 130 403 130 390C130 332 87 126 47 -2L57 -9C72 -4 88 -1 111 4L124 6L150 126C168 209 191 262 235 319C269 363 296 384 318 384C333 384 343 379 354 365ZM716 111L692 94C639 56 591 36 555 36C508 36 479 73 479 133C479 158 482 185 487 214C504 218 613 248 638 259C723 296 762 342 762 404C762 451 728 482 678 482C610 496 500 423 463 349C433 299 403 180 403 113C403 35 447 -11 519 -11C576 -11 632 17 724 92ZM501 274C518 343 538 386 567 412C585 428 616 440 640 440C669 440 688 420 688 388C688 344 653 297 601 272C573 258 537 247 492 237ZM1121 437L1105 437L1126 549C1142 635 1170 673 1216 673C1246 673 1273 658 1288 634L1298 638C1303 654 1313 685 1321 705L1326 720C1310 727 1279 733 1256 733C1245 733 1229 730 1221 726C1197 715 1115 654 1092 630C1070 608 1058 578 1047 521L1032 442C991 422 971 414 946 405L941 383L1022 383L1013 327C983 132 946 -54 924 -123C906 -182 876 -213 840 -213C817 -213 806 -206 788 -184L774 -188C770 -211 756 -259 751 -268C760 -273 775 -276 786 -276C827 -276 881 -245 920 -198C991 -114 1011 -18 1095 383L1199 383C1203 402 1210 425 1216 439L1212 446C1183 439 1184 437 1121 437Z" stroke="rgb(0,0,0)" stroke-opacity="1" stroke-width="8" fill="rgb(0,0,0)" fill-opacity="1"></path></g></g></g></g></g></g></g><g><g><g><g transform="matrix(1,0,0,1,321.73333740234375,144.54998779296875)"><path transform="matrix(0.017,0,0,-0.017,0,0)" d="M310 96L239 624C237 646 241 661 281 662L323 664L323 692L282 691C245 690 217 689 199 689C181 689 153 690 116 691L75 692L75 664L100 662C144 659 152 651 159 614L247 -8L296 -8L674 611C699 651 707 658 736 662L754 664L754 692L724 691C697 690 674 689 658 689C648 689 621 690 580 691L534 692L534 664L560 662C598 659 617 649 617 630C617 619 613 608 601 588Z" stroke="rgb(0,0,0)" stroke-opacity="1" stroke-width="8" fill="rgb(0,0,0)" fill-opacity="1"></path></g></g><g><g><g><g><g transform="matrix(1,0,0,1,334.5,147.78333129882813)"><path transform="matrix(0.0119,0,0,-0.0119,0,0)" d="M105 664L161 662C185 661 196 653 196 635C196 621 192 589 187 559L112 125C96 34 94 32 54 28L13 25L9 -3L51 -2C98 0 117 0 141 0L238 -3L264 -3L267 25L218 28C191 30 182 38 182 58C182 67 183 76 186 93L287 648C316 654 336 656 363 656C450 656 496 617 496 543C496 448 418 378 314 378L270 378L267 367C401 172 432 124 507 -3C507 -3 592 0 592 0C593 0 607 -1 626 -3L639 -3L639 24C599 29 588 37 559 79L375 354C430 364 459 376 495 402C553 444 584 499 584 560C584 646 520 693 409 691L108 691ZM994 111L970 94C917 56 869 36 833 36C786 36 757 73 757 133C757 158 760 185 765 214C782 218 891 248 916 259C1001 296 1040 342 1040 404C1040 451 1006 482 956 482C888 496 778 423 741 349C711 299 681 180 681 113C681 35 725 -11 797 -11C854 -11 910 17 1002 92ZM779 274C796 343 816 386 845 412C863 428 894 440 918 440C947 440 966 420 966 388C966 344 931 297 879 272C851 258 815 247 770 237ZM1085 148C1080 97 1074 62 1063 16C1101 -2 1135 -11 1170 -11C1219 -11 1265 7 1316 47C1367 87 1388 124 1388 174C1388 228 1356 257 1282 271L1239 279C1179 290 1160 307 1160 348C1160 401 1205 442 1262 442C1303 442 1341 424 1357 397L1357 342L1380 342C1384 377 1388 404 1399 455C1360 474 1332 482 1299 482C1247 482 1186 452 1138 404C1112 377 1101 352 1101 316C1101 260 1132 228 1198 215L1261 203C1305 195 1321 177 1321 138C1321 73 1275 29 1204 29C1169 29 1138 40 1110 64L1110 148ZM1459 152C1459 46 1504 -11 1587 -11C1642 -11 1702 15 1747 57C1809 116 1853 230 1853 331C1853 425 1803 482 1720 482C1616 482 1459 382 1459 152ZM1683 444C1744 444 1777 399 1777 315C1777 219 1746 113 1702 60C1684 39 1658 27 1627 27C1569 27 1535 72 1535 151C1535 264 1574 387 1623 427C1636 438 1659 444 1683 444ZM2136 722L2124 733C2072 707 2036 698 1964 691L1960 670L2008 670C2032 670 2042 663 2042 648C2042 645 2042 640 2039 622C2028 567 1955 182 1940 132C1927 82 1921 52 1921 31C1921 6 1932 -9 1951 -9C1977 -9 2013 12 2111 85L2101 103L2075 86C2046 67 2024 56 2014 56C2007 56 2001 66 2001 76C2001 82 2002 89 2005 104ZM2654 473L2647 482L2579 465L2569 414C2554 336 2529 268 2498 221C2439 130 2361 59 2321 59C2313 59 2308 68 2308 85C2308 99 2310 112 2315 137L2372 408C2375 424 2377 438 2377 451C2377 470 2368 482 2354 482C2334 482 2296 461 2222 408L2194 388L2201 368L2233 389C2261 407 2272 412 2281 412C2290 412 2298 403 2298 392C2298 388 2297 378 2296 374L2233 77C2231 68 2229 44 2229 30C2229 7 2244 -11 2264 -11C2327 -11 2448 101 2532 239L2495 97C2488 73 2484 46 2484 31C2484 6 2495 -9 2514 -9C2540 -9 2576 12 2674 85L2664 103L2638 86C2614 70 2588 59 2577 59C2569 59 2564 66 2564 76C2564 112 2639 416 2654 473ZM2986 -20C3030 -19 3097 0 3109 14L3130 46L3120 61C3083 41 3051 32 3015 32C2904 32 2831 118 2831 250C2831 357 2881 417 2971 417C3015 417 3063 397 3081 372L3088 311L3116 311C3116 357 3121 398 3130 434C3090 458 3055 469 3014 469C2966 469 2910 450 2850 412C2780 368 2743 298 2743 210C2743 82 2827 -9 2952 -19L2914 -108L2921 -114C2940 -109 2949 -107 2962 -107C2986 -107 3002 -123 3002 -146C3002 -174 2983 -189 2948 -189C2930 -189 2916 -187 2883 -178L2869 -209C2912 -222 2926 -225 2953 -225C3029 -225 3077 -193 3077 -141C3077 -98 3044 -71 2992 -71C2982 -71 2975 -72 2965 -75ZM3484 82L3479 -3C3544 0 3544 0 3557 0C3562 0 3587 -1 3631 -3L3631 27L3592 29C3568 30 3564 38 3564 87L3564 270C3564 416 3522 469 3406 469C3363 469 3323 458 3285 435L3232 403L3232 338L3258 331L3271 362C3292 409 3302 416 3348 416C3442 416 3481 379 3484 288L3385 270C3249 245 3192 198 3192 111C3192 33 3239 -12 3318 -12C3336 -12 3353 -9 3360 -4ZM3484 124C3455 83 3392 45 3353 45C3313 45 3278 82 3278 125C3278 162 3298 197 3328 216C3353 231 3408 245 3484 256ZM3345 635C3290 635 3253 600 3239 535L3268 535C3281 566 3297 580 3321 580C3359 580 3406 535 3460 535C3517 535 3565 582 3569 640L3540 640C3525 603 3509 590 3481 590C3444 590 3398 635 3345 635ZM3676 152C3676 46 3721 -11 3804 -11C3859 -11 3919 15 3964 57C4026 116 4070 230 4070 331C4070 425 4020 482 3937 482C3833 482 3676 382 3676 152ZM3900 444C3961 444 3994 399 3994 315C3994 219 3963 113 3919 60C3901 39 3875 27 3844 27C3786 27 3752 72 3752 151C3752 264 3791 387 3840 427C3853 438 3876 444 3900 444Z" stroke="rgb(0,0,0)" stroke-opacity="1" stroke-width="8" fill="rgb(0,0,0)" fill-opacity="1"></path></g></g></g></g></g><g><g transform="matrix(1,0,0,1,389.4166259765625,144.54998779296875)"><path transform="matrix(0.017,0,0,-0.017,0,0)" d="M604 347L604 406L65 406L65 347ZM604 134L604 193L65 193L65 134Z" stroke="rgb(0,0,0)" stroke-opacity="1" stroke-width="8" fill="rgb(0,0,0)" fill-opacity="1"></path></g></g><g><g transform="matrix(1,0,0,1,405.86663818359375,144.54998779296875)"><path transform="matrix(0.017,0,0,-0.017,0,0)" d="" stroke="rgb(0,0,0)" stroke-opacity="1" stroke-width="8" fill="rgb(0,0,0)" fill-opacity="1"></path></g></g><g><g><g><g><g transform="matrix(1,0,0,1,411.79998779296875,130.23333740234375)"><path transform="matrix(0.017,0,0,-0.017,0,0)" d="M146 266C146 526 243 632 301 700L282 726C225 675 60 542 60 266C60 159 85 58 133 -32C168 -99 200 -138 282 -215L301 -194C255 -137 146 -15 146 266Z" stroke="rgb(0,0,0)" stroke-opacity="1" stroke-width="8" fill="rgb(0,0,0)" fill-opacity="1"></path></g></g><g><g transform="matrix(1,0,0,1,417.45001220703125,130.16665649414062)"><path transform="matrix(0.017,0,0,-0.017,0,0)" d="M263 689C108 689 29 566 29 324C29 207 50 106 85 57C120 8 176 -20 238 -20C389 -20 465 110 465 366C465 585 400 689 263 689ZM245 654C342 654 381 556 381 316C381 103 343 15 251 15C154 15 113 116 113 360C113 571 150 654 245 654ZM762 689C607 689 528 566 528 324C528 207 549 106 584 57C619 8 675 -20 737 -20C888 -20 964 110 964 366C964 585 899 689 762 689ZM744 654C841 654 880 556 880 316C880 103 842 15 750 15C653 15 612 116 612 360C612 571 649 654 744 654ZM1261 689C1106 689 1027 566 1027 324C1027 207 1048 106 1083 57C1118 8 1174 -20 1236 -20C1387 -20 1463 110 1463 366C1463 585 1398 689 1261 689ZM1243 654C1340 654 1379 556 1379 316C1379 103 1341 15 1249 15C1152 15 1111 116 1111 360C1111 571 1148 654 1243 654ZM1760 689C1605 689 1526 566 1526 324C1526 207 1547 106 1582 57C1617 8 1673 -20 1735 -20C1886 -20 1962 110 1962 366C1962 585 1897 689 1760 689ZM1742 654C1839 654 1878 556 1878 316C1878 103 1840 15 1748 15C1651 15 1610 116 1610 360C1610 571 1647 654 1742 654ZM2259 689C2104 689 2025 566 2025 324C2025 207 2046 106 2081 57C2116 8 2172 -20 2234 -20C2385 -20 2461 110 2461 366C2461 585 2396 689 2259 689ZM2241 654C2338 654 2377 556 2377 316C2377 103 2339 15 2247 15C2150 15 2109 116 2109 360C2109 571 2146 654 2241 654ZM2758 689C2603 689 2524 566 2524 324C2524 207 2545 106 2580 57C2615 8 2671 -20 2733 -20C2884 -20 2960 110 2960 366C2960 585 2895 689 2758 689ZM2740 654C2837 654 2876 556 2876 316C2876 103 2838 15 2746 15C2649 15 2608 116 2608 360C2608 571 2645 654 2740 654ZM3257 689C3102 689 3023 566 3023 324C3023 207 3044 106 3079 57C3114 8 3170 -20 3232 -20C3383 -20 3459 110 3459 366C3459 585 3394 689 3257 689ZM3239 654C3336 654 3375 556 3375 316C3375 103 3337 15 3245 15C3148 15 3107 116 3107 360C3107 571 3144 654 3239 654ZM3911 -3L3911 27L3859 30C3804 33 3794 44 3794 96L3794 700L3553 598L3560 548L3710 614L3710 96C3710 44 3699 33 3645 30L3589 27L3589 -3C3743 0 3743 0 3754 0C3785 0 3895 -3 3911 -3Z" stroke="rgb(0,0,0)" stroke-opacity="1" stroke-width="8" fill="rgb(0,0,0)" fill-opacity="1"></path></g></g><g><g transform="matrix(1,0,0,1,485.316650390625,130.23333740234375)"><path transform="matrix(0.017,0,0,-0.017,0,0)" d="M51 726L32 700C87 636 187 526 187 266C187 -10 83 -131 32 -194L51 -215C104 -165 273 -23 273 265C273 542 108 675 51 726Z" stroke="rgb(0,0,0)" stroke-opacity="1" stroke-width="8" fill="rgb(0,0,0)" fill-opacity="1"></path></g></g><g><g><g><g><g transform="matrix(1,0,0,1,491.48333740234375,133.23331298828126)"><path transform="matrix(0.0119,0,0,-0.0119,0,0)" d="M16 23L16 -3C203 -3 203 0 239 0C275 0 275 -3 468 -3L468 82C353 77 307 81 122 77L304 270C401 373 431 428 431 503C431 618 353 689 226 689C154 689 105 669 56 619L39 483L68 483L81 529C97 587 133 612 200 612C286 612 341 558 341 473C341 398 299 324 186 204Z" stroke="rgb(0,0,0)" stroke-opacity="1" stroke-width="8" fill="rgb(0,0,0)" fill-opacity="1"></path></g></g></g></g></g></g></g><g><g><g><g transform="matrix(1,0,0,1,446.89996337890625,159.54998779296875)"><path transform="matrix(0.017,0,0,-0.017,0,0)" d="M16 23L16 -3C203 -3 203 0 239 0C275 0 275 -3 468 -3L468 82C353 77 307 81 122 77L304 270C401 373 431 428 431 503C431 618 353 689 226 689C154 689 105 669 56 619L39 483L68 483L81 529C97 587 133 612 200 612C286 612 341 558 341 473C341 398 299 324 186 204Z" stroke="rgb(0,0,0)" stroke-opacity="1" stroke-width="8" fill="rgb(0,0,0)" fill-opacity="1"></path></g></g><g><g><g><g><g transform="matrix(1,0,0,1,456.38330078125,152.91666259765626)"><path transform="matrix(0.0119,0,0,-0.0119,0,0)" d="M168 345C127 326 110 315 88 294C50 256 30 211 30 159C30 56 113 -20 226 -20C356 -20 464 82 464 206C464 286 427 329 313 381C404 443 436 485 436 545C436 631 365 689 259 689C140 689 53 613 53 508C53 440 80 402 168 345ZM284 295C347 267 385 218 385 164C385 80 322 14 241 14C156 14 101 74 101 167C101 240 130 286 204 331ZM223 423C160 454 128 494 128 544C128 610 176 655 247 655C320 655 368 607 368 534C368 477 343 438 278 396Z" stroke="rgb(0,0,0)" stroke-opacity="1" stroke-width="8" fill="rgb(0,0,0)" fill-opacity="1"></path></g></g></g></g></g></g></g><line style="fill:none;stroke-width:0.733333px;stroke:rgb(0, 0, 0);" x1="411.79998779296875" y1="140.1666717529297" x2="498.43333435058594" y2="140.1666717529297"></line></g><g><g transform="matrix(1,0,0,1,500.13336181640625,144.54998779296875)"><path transform="matrix(0.017,0,0,-0.017,0,0)" d="M462 224C462 345 355 366 308 374C388 436 418 482 418 541C418 630 344 689 233 689C165 689 120 670 72 622L43 498L74 498L92 554C103 588 166 622 218 622C283 622 336 569 336 506C336 431 277 368 206 368C198 368 187 369 174 370L159 371L147 318L154 312C192 329 211 334 238 334C321 334 369 281 369 190C369 88 308 21 215 21C169 21 128 36 98 64C74 86 61 109 42 163L15 153C36 92 44 56 50 6C103 -12 147 -20 184 -20C307 -20 462 87 462 224Z" stroke="rgb(0,0,0)" stroke-opacity="1" stroke-width="8" fill="rgb(0,0,0)" fill-opacity="1"></path></g></g><g><g transform="matrix(1,0,0,1,508.61663818359375,144.54998779296875)"><path transform="matrix(0.017,0,0,-0.017,0,0)" d="M204 123C177 114 159 108 106 93C99 17 74 -48 16 -144L30 -155L71 -136C152 -31 190 32 218 109Z" stroke="rgb(0,0,0)" stroke-opacity="1" stroke-width="8" fill="rgb(0,0,0)" fill-opacity="1"></path></g></g><g><g transform="matrix(1,0,0,1,516.2499389648438,144.54998779296875)"><path transform="matrix(0.017,0,0,-0.017,0,0)" d="M462 224C462 345 355 366 308 374C388 436 418 482 418 541C418 630 344 689 233 689C165 689 120 670 72 622L43 498L74 498L92 554C103 588 166 622 218 622C283 622 336 569 336 506C336 431 277 368 206 368C198 368 187 369 174 370L159 371L147 318L154 312C192 329 211 334 238 334C321 334 369 281 369 190C369 88 308 21 215 21C169 21 128 36 98 64C74 86 61 109 42 163L15 153C36 92 44 56 50 6C103 -12 147 -20 184 -20C307 -20 462 87 462 224Z" stroke="rgb(0,0,0)" stroke-opacity="1" stroke-width="8" fill="rgb(0,0,0)" fill-opacity="1"></path></g></g></g></g><g><g><g><g transform="matrix(1,0,0,1,321.73333740234375,184.66665649414062)"><path transform="matrix(0.017,0,0,-0.017,0,0)" d="M310 96L239 624C237 646 241 661 281 662L323 664L323 692L282 691C245 690 217 689 199 689C181 689 153 690 116 691L75 692L75 664L100 662C144 659 152 651 159 614L247 -8L296 -8L674 611C699 651 707 658 736 662L754 664L754 692L724 691C697 690 674 689 658 689C648 689 621 690 580 691L534 692L534 664L560 662C598 659 617 649 617 630C617 619 613 608 601 588Z" stroke="rgb(0,0,0)" stroke-opacity="1" stroke-width="8" fill="rgb(0,0,0)" fill-opacity="1"></path></g></g><g><g><g><g><g transform="matrix(1,0,0,1,334.5,187.9)"><path transform="matrix(0.0119,0,0,-0.0119,0,0)" d="M105 664L161 662C185 661 196 653 196 635C196 621 192 589 187 559L112 125C96 34 94 32 54 28L13 25L9 -3L51 -2C98 0 117 0 141 0L238 -3L264 -3L267 25L218 28C191 30 182 38 182 58C182 67 183 76 186 93L287 648C316 654 336 656 363 656C450 656 496 617 496 543C496 448 418 378 314 378L270 378L267 367C401 172 432 124 507 -3C507 -3 592 0 592 0C593 0 607 -1 626 -3L639 -3L639 24C599 29 588 37 559 79L375 354C430 364 459 376 495 402C553 444 584 499 584 560C584 646 520 693 409 691L108 691ZM994 111L970 94C917 56 869 36 833 36C786 36 757 73 757 133C757 158 760 185 765 214C782 218 891 248 916 259C1001 296 1040 342 1040 404C1040 451 1006 482 956 482C888 496 778 423 741 349C711 299 681 180 681 113C681 35 725 -11 797 -11C854 -11 910 17 1002 92ZM779 274C796 343 816 386 845 412C863 428 894 440 918 440C947 440 966 420 966 388C966 344 931 297 879 272C851 258 815 247 770 237ZM1085 148C1080 97 1074 62 1063 16C1101 -2 1135 -11 1170 -11C1219 -11 1265 7 1316 47C1367 87 1388 124 1388 174C1388 228 1356 257 1282 271L1239 279C1179 290 1160 307 1160 348C1160 401 1205 442 1262 442C1303 442 1341 424 1357 397L1357 342L1380 342C1384 377 1388 404 1399 455C1360 474 1332 482 1299 482C1247 482 1186 452 1138 404C1112 377 1101 352 1101 316C1101 260 1132 228 1198 215L1261 203C1305 195 1321 177 1321 138C1321 73 1275 29 1204 29C1169 29 1138 40 1110 64L1110 148ZM1459 152C1459 46 1504 -11 1587 -11C1642 -11 1702 15 1747 57C1809 116 1853 230 1853 331C1853 425 1803 482 1720 482C1616 482 1459 382 1459 152ZM1683 444C1744 444 1777 399 1777 315C1777 219 1746 113 1702 60C1684 39 1658 27 1627 27C1569 27 1535 72 1535 151C1535 264 1574 387 1623 427C1636 438 1659 444 1683 444ZM2136 722L2124 733C2072 707 2036 698 1964 691L1960 670L2008 670C2032 670 2042 663 2042 648C2042 645 2042 640 2039 622C2028 567 1955 182 1940 132C1927 82 1921 52 1921 31C1921 6 1932 -9 1951 -9C1977 -9 2013 12 2111 85L2101 103L2075 86C2046 67 2024 56 2014 56C2007 56 2001 66 2001 76C2001 82 2002 89 2005 104ZM2654 473L2647 482L2579 465L2569 414C2554 336 2529 268 2498 221C2439 130 2361 59 2321 59C2313 59 2308 68 2308 85C2308 99 2310 112 2315 137L2372 408C2375 424 2377 438 2377 451C2377 470 2368 482 2354 482C2334 482 2296 461 2222 408L2194 388L2201 368L2233 389C2261 407 2272 412 2281 412C2290 412 2298 403 2298 392C2298 388 2297 378 2296 374L2233 77C2231 68 2229 44 2229 30C2229 7 2244 -11 2264 -11C2327 -11 2448 101 2532 239L2495 97C2488 73 2484 46 2484 31C2484 6 2495 -9 2514 -9C2540 -9 2576 12 2674 85L2664 103L2638 86C2614 70 2588 59 2577 59C2569 59 2564 66 2564 76C2564 112 2639 416 2654 473ZM2986 -20C3030 -19 3097 0 3109 14L3130 46L3120 61C3083 41 3051 32 3015 32C2904 32 2831 118 2831 250C2831 357 2881 417 2971 417C3015 417 3063 397 3081 372L3088 311L3116 311C3116 357 3121 398 3130 434C3090 458 3055 469 3014 469C2966 469 2910 450 2850 412C2780 368 2743 298 2743 210C2743 82 2827 -9 2952 -19L2914 -108L2921 -114C2940 -109 2949 -107 2962 -107C2986 -107 3002 -123 3002 -146C3002 -174 2983 -189 2948 -189C2930 -189 2916 -187 2883 -178L2869 -209C2912 -222 2926 -225 2953 -225C3029 -225 3077 -193 3077 -141C3077 -98 3044 -71 2992 -71C2982 -71 2975 -72 2965 -75ZM3484 82L3479 -3C3544 0 3544 0 3557 0C3562 0 3587 -1 3631 -3L3631 27L3592 29C3568 30 3564 38 3564 87L3564 270C3564 416 3522 469 3406 469C3363 469 3323 458 3285 435L3232 403L3232 338L3258 331L3271 362C3292 409 3302 416 3348 416C3442 416 3481 379 3484 288L3385 270C3249 245 3192 198 3192 111C3192 33 3239 -12 3318 -12C3336 -12 3353 -9 3360 -4ZM3484 124C3455 83 3392 45 3353 45C3313 45 3278 82 3278 125C3278 162 3298 197 3328 216C3353 231 3408 245 3484 256ZM3345 635C3290 635 3253 600 3239 535L3268 535C3281 566 3297 580 3321 580C3359 580 3406 535 3460 535C3517 535 3565 582 3569 640L3540 640C3525 603 3509 590 3481 590C3444 590 3398 635 3345 635ZM3676 152C3676 46 3721 -11 3804 -11C3859 -11 3919 15 3964 57C4026 116 4070 230 4070 331C4070 425 4020 482 3937 482C3833 482 3676 382 3676 152ZM3900 444C3961 444 3994 399 3994 315C3994 219 3963 113 3919 60C3901 39 3875 27 3844 27C3786 27 3752 72 3752 151C3752 264 3791 387 3840 427C3853 438 3876 444 3900 444Z" stroke="rgb(0,0,0)" stroke-opacity="1" stroke-width="8" fill="rgb(0,0,0)" fill-opacity="1"></path></g></g></g></g></g><g><g transform="matrix(1,0,0,1,389.4166259765625,184.66665649414062)"><path transform="matrix(0.017,0,0,-0.017,0,0)" d="M604 576L583 586C566 526 536 472 467 472C389 472 319 587 227 587C136 587 88 531 65 448L86 439C109 493 145 532 207 532C285 532 347 418 446 418C547 418 589 484 604 576ZM604 294L604 353L65 353L65 294ZM604 134L604 193L65 193L65 134Z" stroke="rgb(0,0,0)" stroke-opacity="1" stroke-width="8" fill="rgb(0,0,0)" fill-opacity="1"></path></g></g><g><g transform="matrix(1,0,0,1,405.86663818359375,184.66665649414062)"><path transform="matrix(0.017,0,0,-0.017,0,0)" d="M667 -3L667 27L615 30C560 33 550 44 550 96L550 700L309 598L316 548L466 614L466 96C466 44 455 33 401 30L345 27L345 -3C499 0 499 0 510 0C541 0 651 -3 667 -3ZM1210 224C1210 345 1103 366 1056 374C1136 436 1166 482 1166 541C1166 630 1092 689 981 689C913 689 868 670 820 622L791 498L822 498L840 554C851 588 914 622 966 622C1031 622 1084 569 1084 506C1084 431 1025 368 954 368C946 368 935 369 922 370L907 371L895 318L902 312C940 329 959 334 986 334C1069 334 1117 281 1117 190C1117 88 1056 21 963 21C917 21 876 36 846 64C822 86 809 109 790 163L763 153C784 92 792 56 798 6C851 -12 895 -20 932 -20C1055 -20 1210 87 1210 224ZM2226 103L2200 86C2171 67 2149 56 2139 56C2132 56 2126 65 2126 76C2126 86 2128 95 2133 116L2208 413C2212 430 2215 446 2215 454C2215 471 2205 482 2189 482C2160 482 2122 464 2061 421C1998 376 1963 341 1914 272L1944 409C1948 429 1951 444 1951 451C1951 470 1941 482 1925 482C1895 482 1849 460 1794 418C1750 384 1730 363 1665 275L1698 408C1702 424 1704 439 1704 451C1704 470 1695 482 1681 482C1660 482 1622 461 1548 408L1520 388L1527 368C1564 391 1599 414 1606 414C1617 414 1624 404 1624 389C1624 338 1583 145 1542 2L1545 -9L1613 6L1635 108C1659 219 1686 278 1741 338C1783 384 1828 414 1856 414C1863 414 1867 406 1867 393C1867 358 1845 244 1804 69L1788 2L1793 -9L1862 6L1883 113C1899 194 1933 269 1977 318C2032 379 2082 414 2114 414C2122 414 2127 405 2127 389C2127 365 2124 351 2102 264C2062 105 2046 84 2046 31C2046 6 2057 -9 2076 -9C2102 -9 2138 12 2236 85ZM2583 96L2512 624C2510 646 2514 661 2554 662L2596 664L2596 692L2555 691C2518 690 2490 689 2472 689C2454 689 2426 690 2389 691L2348 692L2348 664L2373 662C2417 659 2425 651 2432 614L2520 -8L2569 -8L2947 611C2972 651 2980 658 3009 662L3027 664L3027 692L2997 691C2970 690 2947 689 2931 689C2921 689 2894 690 2853 691L2807 692L2807 664L2833 662C2871 659 2890 649 2890 630C2890 619 2886 608 2874 588Z" stroke="rgb(0,0,0)" stroke-opacity="1" stroke-width="8" fill="rgb(0,0,0)" fill-opacity="1"></path></g></g></g></g><g><g><g><g transform="matrix(1,0,0,1,364.73333740234375,31.066665649414062)"><path transform="matrix(0.017,0,0,-0.017,0,0)" d="M310 96L239 624C237 646 241 661 281 662L323 664L323 692L282 691C245 690 217 689 199 689C181 689 153 690 116 691L75 692L75 664L100 662C144 659 152 651 159 614L247 -8L296 -8L674 611C699 651 707 658 736 662L754 664L754 692L724 691C697 690 674 689 658 689C648 689 621 690 580 691L534 692L534 664L560 662C598 659 617 649 617 630C617 619 613 608 601 588Z" stroke="rgb(0,0,0)" stroke-opacity="1" stroke-width="8" fill="rgb(0,0,0)" fill-opacity="1"></path></g></g><g><g><g><g><g transform="matrix(1,0,0,1,377.5,34.299993896484374)"><path transform="matrix(0.0119,0,0,-0.0119,0,0)" d="M17 152C17 46 62 -11 145 -11C200 -11 260 15 305 57C367 116 411 230 411 331C411 425 361 482 278 482C174 482 17 382 17 152ZM241 444C302 444 335 399 335 315C335 219 304 113 260 60C242 39 216 27 185 27C127 27 93 72 93 151C93 264 132 387 181 427C194 438 217 444 241 444ZM935 473L928 482L860 465L850 414C835 336 810 268 779 221C720 130 642 59 602 59C594 59 589 68 589 85C589 99 591 112 596 137L653 408C656 424 658 438 658 451C658 470 649 482 635 482C615 482 577 461 503 408L475 388L482 368L514 389C542 407 553 412 562 412C571 412 579 403 579 392C579 388 578 378 577 374L514 77C512 68 510 44 510 30C510 7 525 -11 545 -11C608 -11 729 101 813 239L776 97C769 73 765 46 765 31C765 6 776 -9 795 -9C821 -9 857 12 955 85L945 103L919 86C895 70 869 59 858 59C850 59 845 66 845 76C845 112 920 416 935 473ZM1123 390L1067 107C1066 99 1054 61 1054 31C1054 6 1065 -9 1084 -9C1119 -9 1154 11 1232 74L1263 99L1253 117L1208 86C1179 66 1159 56 1148 56C1139 56 1134 64 1134 76C1134 102 1148 183 1177 328L1190 390L1297 390L1308 440C1270 436 1236 434 1198 434C1214 528 1225 577 1243 631L1232 646C1212 634 1185 622 1154 610L1129 440C1085 419 1059 408 1041 403L1039 390Z" stroke="rgb(0,0,0)" stroke-opacity="1" stroke-width="8" fill="rgb(0,0,0)" fill-opacity="1"></path></g></g></g></g></g><g><g transform="matrix(1,0,0,1,394.33331298828125,31.066665649414062)"><path transform="matrix(0.017,0,0,-0.017,0,0)" d="" stroke="rgb(0,0,0)" stroke-opacity="1" stroke-width="8" fill="rgb(0,0,0)" fill-opacity="1"></path></g></g><g><g transform="matrix(1,0,0,1,403.6666259765625,31.066665649414062)"><path transform="matrix(0.017,0,0,-0.017,0,0)" d="M604 347L604 406L65 406L65 347ZM604 134L604 193L65 193L65 134Z" stroke="rgb(0,0,0)" stroke-opacity="1" stroke-width="8" fill="rgb(0,0,0)" fill-opacity="1"></path></g></g><g><g transform="matrix(1,0,0,1,420.11663818359375,31.066665649414062)"><path transform="matrix(0.017,0,0,-0.017,0,0)" d="" stroke="rgb(0,0,0)" stroke-opacity="1" stroke-width="8" fill="rgb(0,0,0)" fill-opacity="1"></path></g></g><g><g><g><g><g transform="matrix(1,0,0,1,426.04998779296875,18.666656494140625)"><path transform="matrix(0.017,0,0,-0.017,0,0)" d="M543 227C543 337 459 353 377 365C434 385 459 397 490 425C536 464 559 511 559 562C559 644 501 692 401 692C399 692 389 692 374 691L311 690C299 689 263 689 251 689C232 689 201 690 152 691L100 692L97 664L150 662C174 661 185 653 185 635C185 621 181 589 176 559L89 55C85 37 73 30 31 23L26 -3L63 -2C90 0 105 0 117 0C128 0 154 -1 180 -2L217 -3L237 -4C256 -5 269 -6 277 -6C392 -6 543 87 543 227ZM166 41L217 340L302 340C405 340 455 298 455 211C455 108 382 34 282 34C228 34 207 38 166 41ZM352 655C433 655 473 619 473 544C473 439 399 376 275 376L223 376L272 650C288 650 329 655 352 655ZM713 664L760 662C784 661 795 653 795 636C795 629 789 576 786 559L714 125C699 36 696 31 656 28L620 25L617 -3L649 -3L743 0L837 -3L869 -3L872 25L820 28C794 30 784 37 784 57C784 63 785 74 786 78L875 613C882 652 887 657 926 661L961 664L964 692L858 689C841 689 823 689 780 690L716 692ZM1524 103L1179 692L1017 692L1012 664L1047 662C1092 660 1126 615 1127 606L1034 102C1022 40 1016 32 980 28L949 25L944 -3L1055 0C1067 0 1068 0 1165 -3L1170 25L1128 28C1088 31 1079 39 1079 72C1079 80 1080 91 1082 102L1162 566L1500 -11L1550 -11L1644 542C1665 655 1667 659 1704 662L1741 664L1744 691L1531 692L1526 664L1573 662C1599 661 1609 654 1609 638C1609 631 1526 116 1524 103Z" stroke="rgb(0,0,0)" stroke-opacity="1" stroke-width="8" fill="rgb(0,0,0)" fill-opacity="1"></path></g></g></g></g><g><g><g><g transform="matrix(1,0,0,1,432.11663818359375,46.06666564941406)"><path transform="matrix(0.017,0,0,-0.017,0,0)" d="M16 23L16 -3C203 -3 203 0 239 0C275 0 275 -3 468 -3L468 82C353 77 307 81 122 77L304 270C401 373 431 428 431 503C431 618 353 689 226 689C154 689 105 669 56 619L39 483L68 483L81 529C97 587 133 612 200 612C286 612 341 558 341 473C341 398 299 324 186 204Z" stroke="rgb(0,0,0)" stroke-opacity="1" stroke-width="8" fill="rgb(0,0,0)" fill-opacity="1"></path></g></g><g><g><g><g><g transform="matrix(1,0,0,1,441.5999755859375,39.4333251953125)"><path transform="matrix(0.0119,0,0,-0.0119,0,0)" d="M24 388L31 368L63 389C100 412 103 414 110 414C121 414 128 404 128 389C128 338 87 145 46 2L53 -9C78 -2 101 4 123 8C142 134 163 199 209 268C263 352 338 414 383 414C394 414 400 405 400 390C400 372 397 351 389 319L337 107C328 70 324 47 324 31C324 6 335 -9 354 -9C380 -9 416 12 514 85L504 103L478 86C449 67 427 56 417 56C410 56 404 65 404 76C404 81 405 92 406 96L472 372C479 401 483 429 483 446C483 469 472 482 452 482C410 482 341 444 282 389C244 354 216 320 164 247L202 408C206 426 208 438 208 449C208 470 200 482 185 482C164 482 125 460 52 408Z" stroke="rgb(0,0,0)" stroke-opacity="1" stroke-width="8" fill="rgb(0,0,0)" fill-opacity="1"></path></g></g></g></g></g></g></g><line style="fill:none;stroke-width:0.733333px;stroke:rgb(0, 0, 0);" x1="426.04998779296875" y1="26.683334350585938" x2="455.2833251953125" y2="26.683334350585938"></line></g><g><g transform="matrix(1,0,0,1,456.98333740234375,31.066665649414062)"><path transform="matrix(0.017,0,0,-0.017,0,0)" d="M310 96L239 624C237 646 241 661 281 662L323 664L323 692L282 691C245 690 217 689 199 689C181 689 153 690 116 691L75 692L75 664L100 662C144 659 152 651 159 614L247 -8L296 -8L674 611C699 651 707 658 736 662L754 664L754 692L724 691C697 690 674 689 658 689C648 689 621 690 580 691L534 692L534 664L560 662C598 659 617 649 617 630C617 619 613 608 601 588Z" stroke="rgb(0,0,0)" stroke-opacity="1" stroke-width="8" fill="rgb(0,0,0)" fill-opacity="1"></path></g></g><g><g><g><g><g transform="matrix(1,0,0,1,469.75,34.299993896484374)"><path transform="matrix(0.0119,0,0,-0.0119,0,0)" d="M368 365C371 403 376 435 384 476C373 481 369 482 364 482C333 482 302 458 266 407C227 351 188 291 172 256L204 408C208 425 210 438 210 450C210 470 202 482 187 482C166 482 128 461 54 408L26 388L33 368L65 389C93 407 104 412 113 412C123 412 130 403 130 390C130 332 87 126 47 -2L57 -9C72 -4 88 -1 111 4L124 6L150 126C168 209 191 262 235 319C269 363 296 384 318 384C333 384 343 379 354 365ZM716 111L692 94C639 56 591 36 555 36C508 36 479 73 479 133C479 158 482 185 487 214C504 218 613 248 638 259C723 296 762 342 762 404C762 451 728 482 678 482C610 496 500 423 463 349C433 299 403 180 403 113C403 35 447 -11 519 -11C576 -11 632 17 724 92ZM501 274C518 343 538 386 567 412C585 428 616 440 640 440C669 440 688 420 688 388C688 344 653 297 601 272C573 258 537 247 492 237ZM1121 437L1105 437L1126 549C1142 635 1170 673 1216 673C1246 673 1273 658 1288 634L1298 638C1303 654 1313 685 1321 705L1326 720C1310 727 1279 733 1256 733C1245 733 1229 730 1221 726C1197 715 1115 654 1092 630C1070 608 1058 578 1047 521L1032 442C991 422 971 414 946 405L941 383L1022 383L1013 327C983 132 946 -54 924 -123C906 -182 876 -213 840 -213C817 -213 806 -206 788 -184L774 -188C770 -211 756 -259 751 -268C760 -273 775 -276 786 -276C827 -276 881 -245 920 -198C991 -114 1011 -18 1095 383L1199 383C1203 402 1210 425 1216 439L1212 446C1183 439 1184 437 1121 437Z" stroke="rgb(0,0,0)" stroke-opacity="1" stroke-width="8" fill="rgb(0,0,0)" fill-opacity="1"></path></g></g></g></g></g></g></g></svg>
</svg>
